<svg width="1628" height="780" viewBox="0 0 1628 780" fill="none" xmlns="http://www.w3.org/2000/svg">
<mask id="path-1-inside-1_76_4" fill="white">
<path fill-rule="evenodd" clip-rule="evenodd" d="M1201.27 4.60611e-06C1173.66 4.60611e-06 1151.27 22.3858 1151.27 50V150.047H819.506C791.892 150.047 769.506 172.432 769.506 200.046V282.999H435.843C408.229 282.999 385.843 305.385 385.843 332.999V425.448H50.2803C22.666 425.448 0.280273 447.834 0.280273 475.448V729.672C0.280273 757.286 22.666 779.672 50.2802 779.672H427.01C454.625 779.672 477.01 757.286 477.01 729.672V637.223H812.573C840.187 637.223 862.573 614.837 862.573 587.223V505.22H1196.24C1223.85 505.22 1246.24 482.834 1246.24 455.22V354.224H1578C1605.61 354.224 1628 331.838 1628 304.224V50C1628 22.3858 1605.61 4.60611e-06 1578 4.60611e-06H1201.27Z"/>
</mask>
<path fill-rule="evenodd" clip-rule="evenodd" d="M1201.27 4.60611e-06C1173.66 4.60611e-06 1151.27 22.3858 1151.27 50V150.047H819.506C791.892 150.047 769.506 172.432 769.506 200.046V282.999H435.843C408.229 282.999 385.843 305.385 385.843 332.999V425.448H50.2803C22.666 425.448 0.280273 447.834 0.280273 475.448V729.672C0.280273 757.286 22.666 779.672 50.2802 779.672H427.01C454.625 779.672 477.01 757.286 477.01 729.672V637.223H812.573C840.187 637.223 862.573 614.837 862.573 587.223V505.22H1196.24C1223.85 505.22 1246.24 482.834 1246.24 455.22V354.224H1578C1605.61 354.224 1628 331.838 1628 304.224V50C1628 22.3858 1605.61 4.60611e-06 1578 4.60611e-06H1201.27Z" fill="url(#paint0_linear_76_4)"/>
<path d="M1151.27 150.047V151.047H1152.27V150.047H1151.27ZM769.506 282.999V283.999H770.506V282.999H769.506ZM385.843 425.448V426.448H386.843V425.448H385.843ZM477.01 637.223V636.223H476.01V637.223H477.01ZM862.573 505.22V504.22H861.573V505.22H862.573ZM1246.24 354.224V353.224H1245.24V354.224H1246.24ZM1152.27 50C1152.27 22.9381 1174.21 1 1201.27 1V-0.999995C1173.1 -0.999995 1150.27 21.8335 1150.27 50H1152.27ZM1152.27 150.047V50H1150.27V150.047H1152.27ZM819.506 151.047H1151.27V149.047H819.506V151.047ZM770.506 200.046C770.506 172.985 792.444 151.047 819.506 151.047V149.047C791.339 149.047 768.506 171.88 768.506 200.046H770.506ZM770.506 282.999V200.046H768.506V282.999H770.506ZM435.843 283.999H769.506V281.999H435.843V283.999ZM386.843 332.999C386.843 305.937 408.781 283.999 435.843 283.999V281.999C407.676 281.999 384.843 304.833 384.843 332.999H386.843ZM386.843 425.448V332.999H384.843V425.448H386.843ZM50.2803 426.448H385.843V424.448H50.2803V426.448ZM1.28027 475.448C1.28027 448.386 23.2183 426.448 50.2803 426.448V424.448C22.1138 424.448 -0.719727 447.282 -0.719727 475.448H1.28027ZM1.28027 729.672V475.448H-0.719727V729.672H1.28027ZM50.2802 778.672C23.2183 778.672 1.28027 756.734 1.28027 729.672H-0.719727C-0.719727 757.839 22.1137 780.672 50.2802 780.672V778.672ZM427.01 778.672H50.2802V780.672H427.01V778.672ZM476.01 729.672C476.01 756.734 454.072 778.672 427.01 778.672V780.672C455.177 780.672 478.01 757.839 478.01 729.672H476.01ZM476.01 637.223V729.672H478.01V637.223H476.01ZM812.573 636.223H477.01V638.223H812.573V636.223ZM861.573 587.223C861.573 614.285 839.635 636.223 812.573 636.223V638.223C840.739 638.223 863.573 615.389 863.573 587.223H861.573ZM861.573 505.22V587.223H863.573V505.22H861.573ZM1196.24 504.22H862.573V506.22H1196.24V504.22ZM1245.24 455.22C1245.24 482.282 1223.3 504.22 1196.24 504.22V506.22C1224.4 506.22 1247.24 483.386 1247.24 455.22H1245.24ZM1245.24 354.224V455.22H1247.24V354.224H1245.24ZM1578 353.224H1246.24V355.224H1578V353.224ZM1627 304.224C1627 331.286 1605.06 353.224 1578 353.224V355.224C1606.17 355.224 1629 332.39 1629 304.224H1627ZM1627 50V304.224H1629V50H1627ZM1578 1C1605.06 1 1627 22.9381 1627 50H1629C1629 21.8335 1606.17 -0.999995 1578 -0.999995V1ZM1201.27 1H1578V-0.999995H1201.27V1Z" fill="#C5C5C5" mask="url(#path-1-inside-1_76_4)"/>
<defs>
<linearGradient id="paint0_linear_76_4" x1="948.992" y1="563.624" x2="823.637" y2="241.689" gradientUnits="userSpaceOnUse">
<stop stop-color="#3D2B2B"/>
<stop offset="1" stop-color="#833D3D"/>
</linearGradient>
</defs>
</svg>
