<svg width="77" height="77" viewBox="0 0 77 77" fill="none" xmlns="http://www.w3.org/2000/svg">
<path d="M65.0342 28.9119C64.1895 28.9118 63.3534 29.081 62.5753 29.4097C61.7972 29.7384 61.093 30.2198 60.5043 30.8255L59.5712 31.787L58.6287 30.8255C58.0401 30.2196 57.3359 29.7379 56.5578 29.409C55.7797 29.08 54.9436 28.9105 54.0988 28.9105C53.254 28.9105 52.4179 29.08 51.6398 29.409C50.8617 29.7379 50.1575 30.2196 49.5689 30.8255C48.3679 32.0655 47.6964 33.7241 47.6964 35.4504C47.6964 37.1766 48.3679 38.8352 49.5689 40.0752L59.5712 50.2793L69.564 40.0752C70.765 38.8352 71.4366 37.1766 71.4366 35.4504C71.4366 33.7241 70.765 32.0655 69.564 30.8255C68.9753 30.2198 68.2711 29.7384 67.493 29.4097C66.7149 29.081 65.8788 28.9118 65.0342 28.9119ZM4.96094 71.6467H9.70925V59.7759C9.71302 56.6288 10.9649 53.6116 13.1903 51.3862C15.4157 49.1608 18.4328 47.9089 21.58 47.9052H35.8249C38.9721 47.9089 41.9893 49.1608 44.2147 51.3862C46.4401 53.6116 47.6919 56.6288 47.6957 59.7759V71.6467H52.444V59.7759C52.4377 55.3702 50.6848 51.1467 47.5695 48.0314C44.4541 44.9161 40.2307 43.1631 35.8249 43.1569H21.58C17.1743 43.1631 12.9508 44.9161 9.83549 48.0314C6.72017 51.1467 4.96722 55.3702 4.96094 59.7759V71.6467ZM28.7025 9.91872C31.0503 9.91872 33.3454 10.6149 35.2975 11.9193C37.2497 13.2237 38.7712 15.0776 39.6696 17.2467C40.5681 19.4158 40.8032 21.8027 40.3452 24.1054C39.8871 26.4081 38.7565 28.5232 37.0964 30.1834C35.4362 31.8435 33.3211 32.9741 31.0183 33.4322C28.7156 33.8902 26.3288 33.6551 24.1597 32.7566C21.9906 31.8582 20.1367 30.3367 18.8323 28.3845C17.5279 26.4324 16.8317 24.1373 16.8317 21.7895C16.8317 18.6412 18.0824 15.6218 20.3086 13.3956C22.5348 11.1694 25.5542 9.91872 28.7025 9.91872ZM28.7025 5.17041C25.4155 5.17041 22.2024 6.1451 19.4694 7.97123C16.7364 9.79736 14.6063 12.3929 13.3485 15.4296C12.0906 18.4664 11.7615 21.8079 12.4027 25.0317C13.044 28.2555 14.6268 31.2167 16.951 33.5409C19.2752 35.8652 22.2365 37.448 25.4603 38.0892C28.684 38.7305 32.0256 38.4014 35.0623 37.1435C38.0991 35.8857 40.6946 33.7555 42.5207 31.0225C44.3469 28.2896 45.3216 25.0764 45.3216 21.7895C45.3216 17.3818 43.5706 13.1547 40.4539 10.038C37.3373 6.92134 33.1101 5.17041 28.7025 5.17041Z" fill="#FDFDFD"/>
</svg>
