<svg width="77" height="77" viewBox="0 0 77 77" fill="none" xmlns="http://www.w3.org/2000/svg">
<path d="M62.4124 3.19812H14.9294C8.37314 3.19812 3.05859 8.51266 3.05859 15.0689V62.552C3.05859 69.1082 8.37314 74.4227 14.9294 74.4227H62.4124C68.9687 74.4227 74.2832 69.1082 74.2832 62.552V15.0689C74.2832 8.51266 68.9687 3.19812 62.4124 3.19812ZM22.0518 31.688H16.0096V37.0298H22.0518V40.591H16.0096V49.4941H12.5552V28.1267H22.0518V31.688ZM36.8606 49.4941H33.2744L30.3412 40.591H29.0057V49.4941H25.6131V28.1267H31.5484C34.8224 28.1267 37.4838 30.9223 37.4838 34.3589C37.4838 36.9669 35.9489 39.2069 33.779 40.134L36.8606 49.4941ZM50.5417 31.688H44.4994V37.0298H50.5417V40.591H44.4994V45.9329H50.5417V49.4941H41.0451V28.1267H50.5417V31.688ZM64.7866 31.688H58.7444V37.0298H64.7866V40.591H58.7444V45.9329H64.7866V49.4941H55.29V28.1267H64.7866V31.688Z" fill="white"/>
<path d="M31.5488 31.688H29.0049V37.0298H31.5488C32.9519 37.0298 34.0927 35.8309 34.0927 34.3589C34.0927 32.8869 32.9519 31.688 31.5488 31.688Z" fill="white"/>
</svg>
