<svg width="619" height="445" viewBox="0 0 619 445" fill="none" xmlns="http://www.w3.org/2000/svg">
<path d="M127.482 249.665L47.2178 240.912L47.9906 233.839C47.9973 233.781 47.9925 233.723 47.9764 233.667C47.9602 233.611 47.9332 233.558 47.8967 233.513C47.8603 233.468 47.8152 233.43 47.7641 233.402C47.7129 233.374 47.6568 233.357 47.5989 233.351L2.77645 228.462C2.71861 228.455 2.66 228.46 2.60404 228.476C2.54808 228.492 2.49587 228.519 2.45044 228.556C2.40502 228.592 2.36727 228.637 2.3394 228.688C2.31154 228.739 2.29409 228.795 2.28809 228.853L0.00725507 249.783C-0.00482058 249.9 0.0295315 250.017 0.102865 250.108C0.176199 250.199 0.282606 250.258 0.399021 250.272L45.2268 255.161C45.3428 255.173 45.4588 255.138 45.5493 255.065C45.6399 254.991 45.6976 254.885 45.7098 254.769L46.2465 249.665L126.505 258.413L127.482 249.665Z" fill="url(#paint0_linear_112_3)"/>
<path d="M122.555 313.834H27.3341C26.768 313.834 26.3091 314.293 26.3091 314.86V364.92C26.3091 365.486 26.768 365.945 27.3341 365.945H122.555C123.121 365.945 123.58 365.486 123.58 364.92V314.86C123.58 314.293 123.121 313.834 122.555 313.834Z" fill="url(#paint1_linear_112_3)"/>
<path d="M165.011 288.939H59.5721C58.7896 288.939 58.1553 289.573 58.1553 290.355V389.43C58.1553 390.212 58.7896 390.846 59.5721 390.846H165.011C165.793 390.846 166.428 390.212 166.428 389.43V290.355C166.428 289.573 165.793 288.939 165.011 288.939Z" fill="url(#paint2_linear_112_3)"/>
<path d="M618.29 193.015L519.087 273.869V273.306H477.147V342.788H519.087V342.23L618.29 423.079V193.015Z" fill="url(#paint3_linear_112_3)"/>
<path d="M474.743 190.144H82.6327C80.9077 190.144 79.5093 191.542 79.5093 193.267V441.787C79.5093 443.512 80.9077 444.91 82.6327 444.91H474.743C476.468 444.91 477.866 443.512 477.866 441.787V193.267C477.866 191.542 476.468 190.144 474.743 190.144Z" fill="url(#paint4_linear_112_3)"/>
<path d="M387.094 210.596C434.538 210.596 472.998 172.135 472.998 124.692C472.998 77.2482 434.538 38.7876 387.094 38.7876C339.651 38.7876 301.19 77.2482 301.19 124.692C301.19 172.135 339.651 210.596 387.094 210.596Z" fill="url(#paint5_linear_112_3)"/>
<path d="M443.337 14.0687C382.243 -16.9936 307.56 7.355 276.471 68.4491C245.382 129.543 269.752 204.263 330.852 235.315C391.951 266.366 466.655 242.034 497.717 180.94C528.78 119.846 504.436 45.1363 443.337 14.0687ZM440.493 47.342C441.186 45.9819 442.179 44.7978 443.399 43.8797C444.618 42.9616 446.031 42.3338 447.53 42.044C449.028 41.7542 450.573 41.8101 452.047 42.2074C453.521 42.6047 454.885 43.3329 456.035 44.3367C471.365 57.556 482.614 74.8678 488.465 94.2467C488.917 95.7026 489.031 97.2422 488.799 98.7487C488.566 100.255 487.994 101.689 487.125 102.941C486.256 104.194 485.113 105.232 483.783 105.976C482.453 106.721 480.971 107.153 479.449 107.239L425.418 110.116C423.662 110.21 421.912 109.84 420.345 109.043C418.777 108.245 417.448 107.049 416.49 105.575C415.532 104.101 414.979 102.4 414.887 100.644C414.795 98.8877 415.168 97.1385 415.967 95.5723L440.493 47.342ZM351.98 24.8557C371.083 18.177 391.693 17.0732 411.4 21.6733C412.887 22.0097 414.278 22.6807 415.467 23.6351C416.656 24.5896 417.612 25.8025 418.263 27.1816C418.913 28.5608 419.24 30.07 419.22 31.5947C419.2 33.1194 418.833 34.6194 418.146 35.9808L393.62 84.211C392.822 85.7756 391.626 87.1027 390.153 88.0592C388.68 89.0157 386.981 89.5678 385.227 89.6603C383.473 89.7527 381.725 89.3821 380.16 88.5858C378.594 87.7895 377.266 86.5954 376.307 85.1234L346.791 39.7697C345.966 38.4884 345.444 37.0362 345.264 35.5231C345.083 34.01 345.25 32.4758 345.75 31.0366C346.251 29.5974 347.072 28.291 348.153 27.2164C349.233 26.1418 350.544 25.3272 351.986 24.8342L351.98 24.8557ZM283.013 105.2C286.732 85.2662 296.106 66.8228 310.018 52.0701C311.055 50.9547 312.331 50.0898 313.751 49.5408C315.172 48.9918 316.698 48.7731 318.215 48.9014C319.732 49.0296 321.201 49.5014 322.508 50.2809C323.816 51.0605 324.93 52.1275 325.764 53.401L355.281 98.7923C356.238 100.265 356.791 101.964 356.885 103.718C356.978 105.472 356.608 107.219 355.811 108.785C355.015 110.351 353.821 111.679 352.349 112.637C350.876 113.595 349.178 114.149 347.424 114.243L293.349 117.125C291.831 117.198 290.317 116.925 288.92 116.327C287.522 115.73 286.279 114.822 285.284 113.674C284.288 112.526 283.567 111.166 283.174 109.698C282.78 108.23 282.725 106.692 283.013 105.2ZM333.696 202.068C333.001 203.43 332.005 204.615 330.782 205.533C329.56 206.451 328.144 207.077 326.643 207.364C325.142 207.652 323.594 207.592 322.12 207.191C320.645 206.789 319.281 206.056 318.133 205.047C302.802 191.826 291.552 174.515 285.697 155.137C285.246 153.681 285.133 152.141 285.366 150.634C285.599 149.128 286.172 147.694 287.041 146.442C287.911 145.19 289.054 144.152 290.384 143.408C291.714 142.663 293.196 142.231 294.718 142.144L348.75 139.268C350.509 139.166 352.264 139.532 353.837 140.327C355.409 141.122 356.744 142.318 357.706 143.794C358.668 145.271 359.223 146.976 359.314 148.736C359.406 150.495 359.031 152.248 358.227 153.817L333.696 202.068ZM368.783 115.381C370.626 111.759 373.5 108.766 377.044 106.778C380.587 104.79 384.641 103.898 388.691 104.214C392.742 104.53 396.608 106.04 399.8 108.553C402.993 111.066 405.369 114.469 406.627 118.332C407.885 122.196 407.97 126.345 406.87 130.256C405.771 134.168 403.536 137.665 400.448 140.306C397.361 142.947 393.56 144.614 389.526 145.095C385.491 145.576 381.405 144.85 377.783 143.008C375.378 141.785 373.237 140.101 371.483 138.05C369.729 136 368.396 133.624 367.56 131.059C366.725 128.493 366.402 125.788 366.612 123.098C366.822 120.408 367.56 117.786 368.783 115.381ZM422.203 224.555C403.1 231.234 382.491 232.338 362.783 227.737C361.297 227.4 359.906 226.729 358.718 225.774C357.529 224.819 356.574 223.606 355.924 222.227C355.274 220.848 354.947 219.339 354.968 217.815C354.989 216.29 355.356 214.791 356.043 213.43L380.574 165.178C381.369 163.611 382.563 162.282 384.035 161.323C385.508 160.364 387.207 159.811 388.961 159.717C390.715 159.623 392.464 159.993 394.029 160.79C395.595 161.587 396.924 162.782 397.881 164.255L427.398 209.609C428.225 210.89 428.749 212.343 428.93 213.858C429.111 215.372 428.946 216.908 428.445 218.348C427.944 219.789 427.122 221.097 426.04 222.172C424.959 223.247 423.646 224.062 422.203 224.555ZM448.425 195.972L418.908 150.586C417.949 149.114 417.394 147.416 417.3 145.661C417.206 143.907 417.575 142.159 418.371 140.593C419.167 139.027 420.361 137.698 421.834 136.74C423.306 135.782 425.005 135.228 426.759 135.135L480.834 132.253C482.355 132.177 483.873 132.447 485.274 133.044C486.675 133.641 487.921 134.549 488.919 135.699C489.917 136.849 490.641 138.211 491.034 139.682C491.428 141.153 491.482 142.694 491.192 144.189C487.468 164.122 478.092 182.565 464.181 197.319C463.144 198.436 461.865 199.301 460.443 199.85C459.021 200.399 457.493 200.617 455.974 200.487C454.456 200.357 452.987 199.883 451.678 199.101C450.37 198.318 449.258 197.248 448.425 195.972Z" fill="url(#paint6_linear_112_3)"/>
<path d="M396.067 129.259C395.164 131.033 393.755 132.499 392.018 133.472C390.281 134.445 388.295 134.882 386.31 134.727C384.326 134.571 382.432 133.831 380.868 132.599C379.304 131.368 378.14 129.7 377.523 127.807C376.907 125.914 376.865 123.881 377.404 121.965C377.943 120.048 379.038 118.334 380.55 117.04C382.063 115.746 383.925 114.929 385.902 114.693C387.879 114.457 389.881 114.812 391.656 115.713C392.836 116.312 393.886 117.138 394.747 118.143C395.608 119.148 396.262 120.313 396.671 121.571C397.081 122.829 397.239 124.156 397.135 125.475C397.031 126.794 396.669 128.08 396.067 129.259Z" fill="url(#paint7_linear_112_3)"/>
<path d="M145.712 207.312C188.583 207.312 223.336 172.558 223.336 129.688C223.336 86.8179 188.583 52.0647 145.712 52.0647C102.842 52.0647 68.0889 86.8179 68.0889 129.688C68.0889 172.558 102.842 207.312 145.712 207.312Z" fill="url(#paint8_linear_112_3)"/>
<path d="M145.712 17.5516C83.7809 17.5516 33.5811 67.7568 33.5811 129.715C33.5811 191.673 83.7701 241.83 145.712 241.83C207.654 241.83 257.876 191.625 257.876 129.693C257.876 67.7622 207.644 17.5516 145.712 17.5516ZM157.041 45.5012C157.047 44.1258 157.365 42.7697 157.971 41.5353C158.578 40.301 159.458 39.2208 160.543 38.3765C161.629 37.5321 162.893 36.9458 164.238 36.6619C165.584 36.3779 166.977 36.4038 168.311 36.7375C186.079 41.1036 202.235 50.4411 214.889 63.6567C215.849 64.645 216.571 65.8392 217.001 67.1485C217.431 68.4579 217.557 69.8479 217.369 71.2132C217.181 72.5784 216.685 73.8829 215.917 75.0276C215.15 76.1722 214.132 77.127 212.94 77.8193L170.603 102.243C169.228 103.036 167.668 103.453 166.081 103.453C164.494 103.452 162.935 103.034 161.56 102.24C160.186 101.446 159.045 100.304 158.251 98.9293C157.458 97.5544 157.041 95.995 157.041 94.4077V45.5012ZM76.5412 63.6567C89.1913 50.4524 105.339 41.1228 123.097 36.7589C124.431 36.4253 125.824 36.3994 127.17 36.6834C128.516 36.9673 129.779 37.5536 130.865 38.3979C131.951 39.2422 132.83 40.3224 133.437 41.5568C134.044 42.7911 134.362 44.1473 134.367 45.5227V94.4077C134.368 95.9951 133.951 97.5549 133.158 98.93C132.365 100.305 131.223 101.447 129.848 102.241C128.474 103.034 126.914 103.452 125.327 103.452C123.739 103.451 122.18 103.032 120.805 102.238L78.4625 77.7978C77.2774 77.1019 76.2658 76.1459 75.5042 75.0019C74.7425 73.8579 74.2506 72.5559 74.0656 71.1941C73.8805 69.8323 74.0072 68.4462 74.4361 67.1405C74.8649 65.8348 75.5848 64.6436 76.5412 63.6567ZM53.8939 156.634C48.7348 139.055 48.7348 120.364 53.8939 102.785C54.2732 101.463 54.9483 100.245 55.8679 99.222C56.7876 98.1994 57.9278 97.3992 59.2022 96.8822C60.4767 96.3652 61.852 96.1448 63.2243 96.2377C64.5965 96.3306 65.9296 96.7343 67.1227 97.4184L109.519 121.885C110.893 122.679 112.034 123.82 112.828 125.195C113.621 126.569 114.038 128.128 114.038 129.715C114.038 131.302 113.621 132.861 112.828 134.235C112.034 135.61 110.893 136.751 109.519 137.545L67.1227 162.012C65.9274 162.695 64.5922 163.098 63.2182 163.189C61.8442 163.28 60.4675 163.056 59.1926 162.536C57.9177 162.016 56.778 161.212 55.8599 160.186C54.9418 159.159 54.2695 157.937 53.8939 156.613V156.634ZM134.394 213.896C134.389 215.272 134.071 216.628 133.464 217.862C132.857 219.097 131.978 220.177 130.892 221.021C129.806 221.866 128.542 222.452 127.197 222.736C125.851 223.02 124.458 222.994 123.124 222.66C105.366 218.296 89.2182 208.967 76.5681 195.763C75.6084 194.774 74.8864 193.58 74.4568 192.271C74.0272 190.962 73.9012 189.573 74.0884 188.208C74.2757 186.843 74.7712 185.539 75.5374 184.394C76.3036 183.249 77.3204 182.293 78.5108 181.6L120.854 157.155C122.229 156.362 123.788 155.944 125.375 155.945C126.963 155.945 128.522 156.364 129.896 157.158C131.271 157.952 132.412 159.094 133.205 160.468C133.998 161.843 134.416 163.403 134.415 164.99L134.394 213.896ZM127.149 129.667C127.149 125.995 128.238 122.406 130.277 119.353C132.317 116.301 135.216 113.921 138.608 112.516C142 111.111 145.733 110.744 149.334 111.46C152.935 112.176 156.242 113.944 158.838 116.54C161.435 119.137 163.203 122.444 163.919 126.045C164.635 129.646 164.267 133.379 162.862 136.771C161.457 140.163 159.078 143.062 156.025 145.101C152.973 147.141 149.384 148.23 145.712 148.23C140.789 148.23 136.067 146.274 132.586 142.793C129.105 139.312 127.149 134.59 127.149 129.667ZM214.889 195.741C202.238 208.945 186.09 218.275 168.333 222.639C166.998 222.972 165.606 222.998 164.26 222.714C162.914 222.43 161.651 221.844 160.565 221C159.479 220.155 158.599 219.075 157.993 217.841C157.386 216.607 157.068 215.25 157.063 213.875V164.969C157.062 163.381 157.48 161.822 158.273 160.447C159.066 159.072 160.207 157.93 161.582 157.136C162.956 156.342 164.515 155.924 166.103 155.923C167.69 155.923 169.249 156.34 170.624 157.133L212.962 181.578C214.152 182.273 215.168 183.229 215.933 184.374C216.699 185.52 217.193 186.825 217.379 188.19C217.564 189.555 217.437 190.945 217.005 192.253C216.574 193.561 215.85 194.754 214.889 195.741ZM224.302 161.985L181.905 137.518C180.531 136.724 179.39 135.583 178.597 134.208C177.803 132.834 177.386 131.275 177.386 129.688C177.386 128.101 177.803 126.542 178.597 125.168C179.39 123.793 180.531 122.652 181.905 121.858L224.302 97.3915C225.495 96.7075 226.828 96.3037 228.2 96.2109C229.572 96.118 230.948 96.3384 232.222 96.8554C233.497 97.3724 234.637 98.1725 235.556 99.1952C236.476 100.218 237.151 101.436 237.53 102.758C242.69 120.337 242.69 139.028 237.53 156.607C237.152 157.93 236.478 159.15 235.559 160.174C234.64 161.198 233.5 161.999 232.225 162.517C230.951 163.035 229.575 163.256 228.202 163.164C226.829 163.072 225.495 162.669 224.302 161.985Z" fill="url(#paint9_linear_112_3)"/>
<path d="M154.809 129.667C154.803 131.465 154.265 133.221 153.263 134.713C152.26 136.205 150.837 137.367 149.175 138.052C147.512 138.736 145.684 138.912 143.921 138.558C142.158 138.204 140.54 137.336 139.271 136.063C138.001 134.789 137.137 133.168 136.789 131.405C136.44 129.641 136.621 127.813 137.311 126.153C138 124.492 139.166 123.073 140.661 122.075C142.157 121.076 143.914 120.543 145.712 120.543C148.127 120.55 150.441 121.515 152.146 123.225C153.851 124.935 154.809 127.252 154.809 129.667Z" fill="url(#paint10_linear_112_3)"/>
<defs>
<linearGradient id="paint0_linear_112_3" x1="-13.506" y1="237.199" x2="134.576" y2="255.381" gradientUnits="userSpaceOnUse">
<stop offset="0.15" stop-color="#D3A84C"/>
<stop offset="0.21" stop-color="#E8C96F"/>
<stop offset="0.27" stop-color="#F9E38A"/>
<stop offset="0.31" stop-color="#FFEC94"/>
<stop offset="0.33" stop-color="#FCE68E"/>
<stop offset="0.5" stop-color="#E6BE69"/>
<stop offset="0.56" stop-color="#EFC870"/>
<stop offset="0.69" stop-color="#FFD87C"/>
<stop offset="0.85" stop-color="#C19B48"/>
<stop offset="0.9" stop-color="#BF9945"/>
<stop offset="0.94" stop-color="#B7913C"/>
<stop offset="0.97" stop-color="#AA832D"/>
<stop offset="1" stop-color="#956D13"/>
</linearGradient>
<linearGradient id="paint1_linear_112_3" x1="13.2842" y1="339.895" x2="91.5785" y2="339.895" gradientUnits="userSpaceOnUse">
<stop offset="0.1" stop-color="#A47A1E"/>
<stop offset="0.18" stop-color="#B58C30"/>
<stop offset="0.4" stop-color="#E2BA5E"/>
<stop offset="0.76" stop-color="#FFD87C"/>
</linearGradient>
<linearGradient id="paint2_linear_112_3" x1="63.1838" y1="339.895" x2="162.419" y2="339.895" gradientUnits="userSpaceOnUse">
<stop stop-color="#D3A84C"/>
<stop offset="0.1" stop-color="#E8C96F"/>
<stop offset="0.19" stop-color="#F9E38A"/>
<stop offset="0.25" stop-color="#FFEC94"/>
<stop offset="0.38" stop-color="#F9E18A"/>
<stop offset="0.5" stop-color="#E6BE69"/>
<stop offset="0.61" stop-color="#FFD87C"/>
<stop offset="1" stop-color="#A47A1E"/>
</linearGradient>
<linearGradient id="paint3_linear_112_3" x1="662.576" y1="308.049" x2="421.403" y2="308.049" gradientUnits="userSpaceOnUse">
<stop offset="0.02" stop-color="#A47A1E"/>
<stop offset="0.09" stop-color="#C09539"/>
<stop offset="0.15" stop-color="#D3A84C"/>
<stop offset="0.21" stop-color="#E8C96F"/>
<stop offset="0.27" stop-color="#F9E38A"/>
<stop offset="0.31" stop-color="#FFEC94"/>
<stop offset="0.33" stop-color="#FCE68E"/>
<stop offset="0.5" stop-color="#E6BE69"/>
<stop offset="0.56" stop-color="#EFC870"/>
<stop offset="0.69" stop-color="#FFD87C"/>
<stop offset="0.85" stop-color="#C19B48"/>
<stop offset="0.9" stop-color="#BF9945"/>
<stop offset="0.94" stop-color="#B7913C"/>
<stop offset="0.97" stop-color="#AA832D"/>
<stop offset="1" stop-color="#956D13"/>
</linearGradient>
<linearGradient id="paint4_linear_112_3" x1="29.6368" y1="317.527" x2="523.5" y2="318" gradientUnits="userSpaceOnUse">
<stop offset="0.01" stop-color="#A47A1E"/>
<stop offset="0.09" stop-color="#C09539"/>
<stop offset="0.15" stop-color="#D3A84C"/>
<stop offset="0.21" stop-color="#E8C96F"/>
<stop offset="0.27" stop-color="#F9E38A"/>
<stop offset="0.31" stop-color="#FFEC94"/>
<stop offset="0.33" stop-color="#FCE68E"/>
<stop offset="0.5" stop-color="#E6BE69"/>
<stop offset="0.56" stop-color="#EFC870"/>
<stop offset="0.69" stop-color="#FFD87C"/>
<stop offset="0.85" stop-color="#C19B48"/>
<stop offset="0.93" stop-color="#BF9946"/>
<stop offset="0.96" stop-color="#BA933F"/>
<stop offset="0.97" stop-color="#B08934"/>
<stop offset="0.99" stop-color="#A27B23"/>
<stop offset="1" stop-color="#956D13"/>
</linearGradient>
<linearGradient id="paint5_linear_112_3" x1="387.104" y1="-1134.75" x2="387.077" y2="1689.11" gradientUnits="userSpaceOnUse">
<stop offset="0.08" stop-color="#D3A84C"/>
<stop offset="0.13" stop-color="#E8C96F"/>
<stop offset="0.18" stop-color="#F9E38A"/>
<stop offset="0.21" stop-color="#FFEC94"/>
<stop offset="0.3" stop-color="#C3A146"/>
<stop offset="0.35" stop-color="#A47A1E"/>
<stop offset="0.37" stop-color="#AA8125"/>
<stop offset="0.46" stop-color="#D5AD56"/>
<stop offset="0.5" stop-color="#E6BE69"/>
<stop offset="0.63" stop-color="#FCD57A"/>
<stop offset="0.69" stop-color="#FFD87C"/>
<stop offset="0.79" stop-color="#B7913C"/>
<stop offset="0.8" stop-color="#956D13"/>
</linearGradient>
<linearGradient id="paint6_linear_112_3" x1="458.572" y1="196.177" x2="298.307" y2="35.9161" gradientUnits="userSpaceOnUse">
<stop stop-color="#A47A1E"/>
<stop offset="0.08" stop-color="#C09539"/>
<stop offset="0.15" stop-color="#D3A84C"/>
<stop offset="0.21" stop-color="#E8C96F"/>
<stop offset="0.27" stop-color="#F9E38A"/>
<stop offset="0.31" stop-color="#FFEC94"/>
<stop offset="0.33" stop-color="#FCE68E"/>
<stop offset="0.5" stop-color="#E6BE69"/>
<stop offset="0.56" stop-color="#EFC870"/>
<stop offset="0.69" stop-color="#FFD87C"/>
<stop offset="0.85" stop-color="#C19B48"/>
<stop offset="0.9" stop-color="#BF9945"/>
<stop offset="0.94" stop-color="#B7913C"/>
<stop offset="0.97" stop-color="#AA832D"/>
<stop offset="1" stop-color="#956D13"/>
</linearGradient>
<linearGradient id="paint7_linear_112_3" x1="479.743" y1="9.83632" x2="272.009" y2="267.38" gradientUnits="userSpaceOnUse">
<stop stop-color="#A47A1E"/>
<stop offset="0.08" stop-color="#C09539"/>
<stop offset="0.15" stop-color="#D3A84C"/>
<stop offset="0.21" stop-color="#E8C96F"/>
<stop offset="0.27" stop-color="#F9E38A"/>
<stop offset="0.31" stop-color="#FFEC94"/>
<stop offset="0.33" stop-color="#FCE68E"/>
<stop offset="0.5" stop-color="#E6BE69"/>
<stop offset="0.56" stop-color="#EFC870"/>
<stop offset="0.69" stop-color="#FFD87C"/>
<stop offset="0.85" stop-color="#C19B48"/>
<stop offset="0.9" stop-color="#BF9945"/>
<stop offset="0.94" stop-color="#B7913C"/>
<stop offset="0.97" stop-color="#AA832D"/>
<stop offset="1" stop-color="#956D13"/>
</linearGradient>
<linearGradient id="paint8_linear_112_3" x1="381.127" y1="-983.686" x2="-146.701" y2="1512.65" gradientUnits="userSpaceOnUse">
<stop offset="0.08" stop-color="#D3A84C"/>
<stop offset="0.13" stop-color="#E8C96F"/>
<stop offset="0.18" stop-color="#F9E38A"/>
<stop offset="0.21" stop-color="#FFEC94"/>
<stop offset="0.3" stop-color="#C3A146"/>
<stop offset="0.35" stop-color="#A47A1E"/>
<stop offset="0.37" stop-color="#AA8125"/>
<stop offset="0.46" stop-color="#D5AD56"/>
<stop offset="0.5" stop-color="#E6BE69"/>
<stop offset="0.63" stop-color="#FCD57A"/>
<stop offset="0.69" stop-color="#FFD87C"/>
<stop offset="0.79" stop-color="#B7913C"/>
<stop offset="0.8" stop-color="#956D13"/>
</linearGradient>
<linearGradient id="paint9_linear_112_3" x1="164.608" y1="40.3331" x2="122.244" y2="240.682" gradientUnits="userSpaceOnUse">
<stop stop-color="#A47A1E"/>
<stop offset="0.08" stop-color="#C09539"/>
<stop offset="0.15" stop-color="#D3A84C"/>
<stop offset="0.21" stop-color="#E8C96F"/>
<stop offset="0.27" stop-color="#F9E38A"/>
<stop offset="0.31" stop-color="#FFEC94"/>
<stop offset="0.33" stop-color="#FCE68E"/>
<stop offset="0.5" stop-color="#E6BE69"/>
<stop offset="0.56" stop-color="#EFC870"/>
<stop offset="0.69" stop-color="#FFD87C"/>
<stop offset="0.85" stop-color="#C19B48"/>
<stop offset="0.9" stop-color="#BF9945"/>
<stop offset="0.94" stop-color="#B7913C"/>
<stop offset="0.97" stop-color="#AA832D"/>
<stop offset="1" stop-color="#956D13"/>
</linearGradient>
<linearGradient id="paint10_linear_112_3" x1="173.297" y1="-0.770119" x2="111.451" y2="291.735" gradientUnits="userSpaceOnUse">
<stop stop-color="#A47A1E"/>
<stop offset="0.08" stop-color="#C09539"/>
<stop offset="0.15" stop-color="#D3A84C"/>
<stop offset="0.21" stop-color="#E8C96F"/>
<stop offset="0.27" stop-color="#F9E38A"/>
<stop offset="0.31" stop-color="#FFEC94"/>
<stop offset="0.33" stop-color="#FCE68E"/>
<stop offset="0.5" stop-color="#E6BE69"/>
<stop offset="0.56" stop-color="#EFC870"/>
<stop offset="0.69" stop-color="#FFD87C"/>
<stop offset="0.85" stop-color="#C19B48"/>
<stop offset="0.9" stop-color="#BF9945"/>
<stop offset="0.94" stop-color="#B7913C"/>
<stop offset="0.97" stop-color="#AA832D"/>
<stop offset="1" stop-color="#956D13"/>
</linearGradient>
</defs>
</svg>
