<svg width="240" height="240" viewBox="0 0 240 240" fill="none" xmlns="http://www.w3.org/2000/svg">
<path d="M60 150L37.5 120H22.5C14.2125 120 7.5 126.712 7.5 135V217.5C7.5 225.787 14.2125 232.5 22.5 232.5H37.5L60 202.5H97.5V150H60Z" fill="#595858"/>
<path d="M30 120H35.625V232.5H30V120Z" fill="#3A3A3A"/>
<path d="M227.081 137.719L217.5 142.5H187.5V165H217.5L227.081 169.781C229.575 171.019 232.5 169.219 232.5 166.425V141.075C232.5 138.281 229.575 136.462 227.081 137.719Z" fill="#595858"/>
<path d="M120 90H172.5V142.5H120V90Z" fill="#3F3F3F"/>
<path opacity="0.5" d="M59.0625 150H64.6875V202.5H59.0625V150Z" fill="#787676"/>
<path d="M76.4062 150H82.0312V202.5H76.4062V150Z" fill="#3A3A3A"/>
<path d="M90 127.5C123.137 127.5 150 100.637 150 67.5C150 34.3629 123.137 7.5 90 7.5C56.8629 7.5 30 34.3629 30 67.5C30 100.637 56.8629 127.5 90 127.5Z" fill="#504F4F"/>
<path d="M189.375 127.5C212.157 127.5 230.625 109.032 230.625 86.25C230.625 63.4683 212.157 45 189.375 45C166.593 45 148.125 63.4683 148.125 86.25C148.125 109.032 166.593 127.5 189.375 127.5Z" fill="#504F4F"/>
<path d="M195 225H97.5C89.2125 225 82.5 218.287 82.5 210V142.5C82.5 134.212 89.2125 127.5 97.5 127.5H195C203.287 127.5 210 134.212 210 142.5V210C210 218.287 203.287 225 195 225Z" fill="#504F4F"/>
<path d="M101.25 176.25C103.312 176.25 105 177.938 105 180C105 182.062 103.312 183.75 101.25 183.75C99.1875 183.75 97.5 182.062 97.5 180C97.5 177.938 99.1875 176.25 101.25 176.25ZM101.25 172.5C97.1062 172.5 93.75 175.856 93.75 180C93.75 184.144 97.1062 187.5 101.25 187.5C105.394 187.5 108.75 184.144 108.75 180C108.75 175.856 105.394 172.5 101.25 172.5ZM101.25 191.25C103.312 191.25 105 192.938 105 195C105 197.062 103.312 198.75 101.25 198.75C99.1875 198.75 97.5 197.062 97.5 195C97.5 192.938 99.1875 191.25 101.25 191.25ZM101.25 187.5C97.1062 187.5 93.75 190.856 93.75 195C93.75 199.144 97.1062 202.5 101.25 202.5C105.394 202.5 108.75 199.144 108.75 195C108.75 190.856 105.394 187.5 101.25 187.5Z" fill="#3A3A3A"/>
<path d="M120 200.625C116.906 200.625 114.375 198.094 114.375 195V180C114.375 176.906 116.906 174.375 120 174.375H180C183.094 174.375 185.625 176.906 185.625 180V195C185.625 198.094 183.094 200.625 180 200.625H120Z" fill="#504F4F"/>
<path d="M180 177.188C181.556 177.188 182.812 178.444 182.812 180V195C182.812 196.556 181.556 197.812 180 197.812H120C118.444 197.812 117.188 196.556 117.188 195V180C117.188 178.444 118.444 177.188 120 177.188H180ZM180 171.562H120C115.35 171.562 111.562 175.35 111.562 180V195C111.562 199.65 115.35 203.438 120 203.438H180C184.65 203.438 188.438 199.65 188.438 195V180C188.438 175.35 184.65 171.562 180 171.562Z" fill="#3A3A3A"/>
<path d="M90 109.688C113.3 109.688 132.188 90.7995 132.188 67.5C132.188 44.2005 113.3 25.3125 90 25.3125C66.7005 25.3125 47.8125 44.2005 47.8125 67.5C47.8125 90.7995 66.7005 109.688 90 109.688Z" fill="#504F4F"/>
<path d="M90 28.125C111.713 28.125 129.375 45.7875 129.375 67.5C129.375 89.2125 111.713 106.875 90 106.875C68.2875 106.875 50.625 89.2125 50.625 67.5C50.625 45.7875 68.2875 28.125 90 28.125ZM90 22.5C65.1562 22.5 45 42.6562 45 67.5C45 92.3438 65.1562 112.5 90 112.5C114.844 112.5 135 92.3438 135 67.5C135 42.6562 114.844 22.5 90 22.5Z" fill="#3A3A3A"/>
<path d="M189.375 109.688C202.319 109.688 212.812 99.1942 212.812 86.25C212.812 73.3058 202.319 62.8125 189.375 62.8125C176.431 62.8125 165.938 73.3058 165.938 86.25C165.938 99.1942 176.431 109.688 189.375 109.688Z" fill="#504F4F"/>
<path d="M189.375 65.625C200.756 65.625 210 74.8687 210 86.25C210 97.6312 200.756 106.875 189.375 106.875C177.994 106.875 168.75 97.6312 168.75 86.25C168.75 74.8687 177.994 65.625 189.375 65.625ZM189.375 60C174.881 60 163.125 71.7563 163.125 86.25C163.125 100.744 174.881 112.5 189.375 112.5C203.869 112.5 215.625 100.744 215.625 86.25C215.625 71.7563 203.869 60 189.375 60Z" fill="#3A3A3A"/>
<path d="M90 82.5C98.2843 82.5 105 75.7843 105 67.5C105 59.2157 98.2843 52.5 90 52.5C81.7157 52.5 75 59.2157 75 67.5C75 75.7843 81.7157 82.5 90 82.5Z" fill="#636262"/>
<path d="M189.375 101.25C197.659 101.25 204.375 94.5343 204.375 86.25C204.375 77.9657 197.659 71.25 189.375 71.25C181.091 71.25 174.375 77.9657 174.375 86.25C174.375 94.5343 181.091 101.25 189.375 101.25Z" fill="#636262"/>
<path d="M101.25 183.75C103.321 183.75 105 182.071 105 180C105 177.929 103.321 176.25 101.25 176.25C99.1789 176.25 97.5 177.929 97.5 180C97.5 182.071 99.1789 183.75 101.25 183.75Z" fill="url(#paint0_linear_56_26)"/>
<path d="M101.25 198.75C103.321 198.75 105 197.071 105 195C105 192.929 103.321 191.25 101.25 191.25C99.1789 191.25 97.5 192.929 97.5 195C97.5 197.071 99.1789 198.75 101.25 198.75Z" fill="url(#paint1_linear_56_26)"/>
<defs>
<linearGradient id="paint0_linear_56_26" x1="101.25" y1="175.781" x2="101.25" y2="183.315" gradientUnits="userSpaceOnUse">
<stop stop-color="#FF1744"/>
<stop offset="1" stop-color="#D50000"/>
</linearGradient>
<linearGradient id="paint1_linear_56_26" x1="101.25" y1="190.781" x2="101.25" y2="198.319" gradientUnits="userSpaceOnUse">
<stop stop-color="#76FF03"/>
<stop offset="1" stop-color="#64DD17"/>
</linearGradient>
</defs>
</svg>
