<svg width="562" height="405" viewBox="0 0 562 405" fill="none" xmlns="http://www.w3.org/2000/svg">
<path d="M116.069 227.005L43.1588 219.054L43.8608 212.629C43.8669 212.576 43.8625 212.523 43.8478 212.472C43.8332 212.421 43.8086 212.374 43.7755 212.332C43.7424 212.291 43.7014 212.257 43.655 212.232C43.6085 212.206 43.5575 212.19 43.5049 212.185L2.7889 207.744C2.73635 207.738 2.68311 207.742 2.63227 207.757C2.58144 207.771 2.53401 207.796 2.49275 207.829C2.45149 207.862 2.4172 207.903 2.39189 207.95C2.36657 207.996 2.35072 208.047 2.34527 208.1L0.273395 227.112C0.262426 227.218 0.293631 227.324 0.360246 227.407C0.426862 227.49 0.52352 227.544 0.62927 227.556L41.3501 231.997C41.4555 232.008 41.5609 231.977 41.6432 231.91C41.7254 231.843 41.7778 231.746 41.7889 231.641L42.2764 227.005L115.182 234.951L116.069 227.005Z" fill="url(#paint0_linear_123_13)"/>
<path d="M111.594 285.295H25.0969C24.5826 285.295 24.1658 285.712 24.1658 286.227V331.701C24.1658 332.215 24.5826 332.632 25.0969 332.632H111.594C112.108 332.632 112.525 332.215 112.525 331.701V286.227C112.525 285.712 112.108 285.295 111.594 285.295Z" fill="url(#paint1_linear_123_13)"/>
<path d="M150.16 262.68H54.381C53.6702 262.68 53.094 263.256 53.094 263.967V353.965C53.094 354.675 53.6702 355.252 54.381 355.252H150.16C150.871 355.252 151.447 354.675 151.447 353.965V263.967C151.447 263.256 150.871 262.68 150.16 262.68Z" fill="url(#paint2_linear_123_13)"/>
<path d="M561.912 175.544L471.798 248.991V248.479H433.7V311.596H471.798V311.089L561.912 384.531V175.544Z" fill="url(#paint3_linear_123_13)"/>
<path d="M431.516 172.936H75.329C73.762 172.936 72.4917 174.207 72.4917 175.774V401.525C72.4917 403.092 73.762 404.362 75.329 404.362H431.516C433.083 404.362 434.353 403.092 434.353 401.525V175.774C434.353 174.207 433.083 172.936 431.516 172.936Z" fill="url(#paint4_linear_123_13)"/>
<path d="M351.897 191.515C394.994 191.515 429.932 156.578 429.932 113.481C429.932 70.3839 394.994 35.4468 351.897 35.4468C308.8 35.4468 273.863 70.3839 273.863 113.481C273.863 156.578 308.8 191.515 351.897 191.515Z" fill="url(#paint5_linear_123_13)"/>
<path d="M402.987 12.9925C347.49 -15.224 279.65 6.89389 251.409 62.3909C223.168 117.888 245.306 185.763 300.807 213.969C356.309 242.176 424.169 220.073 452.386 164.576C480.602 109.079 458.489 41.2139 402.987 12.9925ZM400.404 43.2175C401.033 41.982 401.936 40.9064 403.044 40.0724C404.151 39.2384 405.435 38.6681 406.796 38.4049C408.157 38.1417 409.561 38.1924 410.9 38.5533C412.238 38.9142 413.477 39.5757 414.522 40.4875C428.448 52.4958 438.666 68.2215 443.981 85.825C444.392 87.1475 444.495 88.5461 444.284 89.9146C444.073 91.283 443.553 92.5855 442.764 93.7231C441.975 94.8607 440.936 95.8035 439.728 96.48C438.52 97.1565 437.174 97.5489 435.791 97.6274L386.71 100.24C385.115 100.326 383.525 99.9896 382.102 99.2654C380.678 98.5413 379.47 97.4549 378.6 96.1155C377.729 94.7761 377.227 93.2311 377.144 91.636C377.061 90.0409 377.399 88.4519 378.125 87.0291L400.404 43.2175ZM320 22.7913C337.353 16.7245 356.075 15.7218 373.976 19.9004C375.327 20.2061 376.591 20.8155 377.671 21.6825C378.751 22.5495 379.62 23.6513 380.21 24.9041C380.801 26.157 381.098 27.5279 381.08 28.9129C381.062 30.2979 380.728 31.6604 380.104 32.8971L357.825 76.7088C357.1 78.13 356.014 79.3356 354.676 80.2044C353.338 81.0732 351.794 81.5748 350.201 81.6588C348.608 81.7427 347.02 81.4061 345.598 80.6828C344.176 79.9594 342.969 78.8747 342.099 77.5375L315.286 36.3389C314.537 35.175 314.063 33.8558 313.899 32.4814C313.735 31.1069 313.886 29.7133 314.341 28.4059C314.796 27.0986 315.542 25.9119 316.523 24.9357C317.505 23.9596 318.695 23.2196 320.005 22.7718L320 22.7913ZM257.352 95.7749C260.73 77.6673 269.245 60.9136 281.883 47.5124C282.824 46.4992 283.984 45.7135 285.274 45.2148C286.564 44.7161 287.951 44.5175 289.329 44.634C290.707 44.7505 292.04 45.179 293.229 45.8872C294.417 46.5953 295.428 47.5646 296.186 48.7214L322.998 89.9541C323.868 91.2918 324.371 92.8349 324.455 94.4282C324.54 96.0216 324.204 97.6092 323.48 99.0314C322.757 100.454 321.672 101.661 320.335 102.531C318.998 103.401 317.455 103.904 315.861 103.989L266.741 106.607C265.362 106.673 263.986 106.426 262.717 105.883C261.448 105.34 260.318 104.516 259.414 103.472C258.51 102.429 257.855 101.194 257.497 99.861C257.14 98.5275 257.09 97.1304 257.352 95.7749ZM303.391 183.769C302.76 185.006 301.855 186.082 300.745 186.916C299.634 187.749 298.348 188.319 296.984 188.58C295.62 188.841 294.215 188.787 292.875 188.422C291.536 188.057 290.297 187.391 289.254 186.474C275.328 174.465 265.108 158.74 259.789 141.137C259.38 139.814 259.277 138.415 259.489 137.047C259.7 135.678 260.221 134.376 261.011 133.239C261.8 132.101 262.839 131.159 264.047 130.482C265.255 129.806 266.602 129.413 267.984 129.334L317.066 126.721C318.664 126.629 320.258 126.961 321.687 127.683C323.115 128.405 324.328 129.492 325.202 130.833C326.076 132.175 326.579 133.723 326.663 135.322C326.746 136.921 326.405 138.513 325.675 139.938L303.391 183.769ZM335.264 105.023C336.937 101.733 339.549 99.0138 342.768 97.2083C345.986 95.4028 349.668 94.5923 353.348 94.8793C357.028 95.1663 360.539 96.5379 363.439 98.8207C366.339 101.104 368.497 104.195 369.641 107.704C370.784 111.213 370.861 114.983 369.862 118.536C368.863 122.089 366.833 125.265 364.028 127.665C361.224 130.064 357.771 131.578 354.106 132.015C350.441 132.452 346.729 131.792 343.439 130.119C341.254 129.008 339.31 127.478 337.716 125.616C336.123 123.753 334.912 121.595 334.153 119.264C333.394 116.934 333.101 114.477 333.292 112.033C333.482 109.59 334.153 107.207 335.264 105.023ZM383.79 204.195C366.437 210.262 347.715 211.265 329.814 207.086C328.463 206.78 327.2 206.17 326.121 205.302C325.041 204.435 324.173 203.333 323.583 202.08C322.993 200.828 322.696 199.457 322.714 198.072C322.733 196.688 323.067 195.325 323.691 194.089L345.974 150.258C346.697 148.835 347.781 147.627 349.119 146.756C350.456 145.885 351.999 145.382 353.593 145.297C355.187 145.212 356.775 145.548 358.197 146.272C359.62 146.996 360.826 148.081 361.696 149.419L388.509 190.618C389.26 191.782 389.736 193.102 389.9 194.478C390.065 195.853 389.914 197.248 389.46 198.557C389.005 199.866 388.258 201.054 387.275 202.03C386.293 203.007 385.101 203.747 383.79 204.195ZM407.609 178.231L380.796 137.003C379.925 135.666 379.421 134.123 379.336 132.529C379.25 130.936 379.586 129.348 380.309 127.925C381.032 126.503 382.117 125.295 383.454 124.425C384.792 123.555 386.335 123.052 387.929 122.968L437.049 120.35C438.43 120.28 439.81 120.526 441.082 121.068C442.355 121.61 443.487 122.435 444.394 123.479C445.3 124.524 445.957 125.761 446.315 127.098C446.673 128.434 446.721 129.834 446.458 131.192C443.075 149.299 434.558 166.052 421.922 179.454C420.979 180.469 419.818 181.255 418.527 181.753C417.235 182.252 415.847 182.45 414.467 182.332C413.088 182.214 411.753 181.783 410.565 181.073C409.376 180.362 408.366 179.39 407.609 178.231Z" fill="url(#paint6_linear_123_13)"/>
<path d="M360.048 117.63C359.228 119.241 357.948 120.573 356.37 121.457C354.793 122.341 352.988 122.738 351.185 122.596C349.383 122.455 347.662 121.783 346.241 120.664C344.82 119.545 343.763 118.03 343.203 116.311C342.643 114.591 342.606 112.744 343.095 111.003C343.584 109.263 344.579 107.706 345.953 106.53C347.327 105.354 349.019 104.612 350.814 104.398C352.61 104.183 354.429 104.506 356.041 105.325C357.113 105.869 358.067 106.619 358.849 107.532C359.631 108.445 360.225 109.503 360.597 110.646C360.969 111.789 361.112 112.994 361.018 114.192C360.924 115.391 360.595 116.559 360.048 117.63Z" fill="url(#paint7_linear_123_13)"/>
<path d="M132.63 188.532C171.572 188.532 203.142 156.962 203.142 118.02C203.142 79.0769 171.572 47.5076 132.63 47.5076C93.687 47.5076 62.1177 79.0769 62.1177 118.02C62.1177 156.962 93.687 188.532 132.63 188.532Z" fill="url(#paint8_linear_123_13)"/>
<path d="M132.63 16.1564C76.3722 16.1564 30.7715 61.762 30.7715 118.044C30.7715 174.326 76.3625 219.887 132.63 219.887C188.897 219.887 234.517 174.282 234.517 118.024C234.517 61.7669 188.887 16.1564 132.63 16.1564ZM142.921 41.5454C142.926 40.296 143.215 39.0641 143.766 37.9428C144.317 36.8215 145.116 35.8403 146.102 35.0733C147.088 34.3064 148.236 33.7738 149.459 33.5158C150.681 33.2579 151.946 33.2814 153.158 33.5845C169.298 37.5506 183.974 46.0327 195.468 58.0375C196.341 58.9353 196.997 60.0201 197.388 61.2094C197.778 62.3988 197.892 63.6616 197.722 64.9017C197.551 66.1419 197.1 67.3268 196.403 68.3666C195.706 69.4064 194.781 70.2737 193.699 70.9026L155.24 93.0887C153.991 93.8092 152.574 94.1883 151.133 94.1879C149.691 94.1874 148.274 93.8074 147.026 93.0861C145.777 92.3648 144.741 91.3275 144.02 90.0786C143.3 88.8297 142.92 87.4131 142.921 85.9712V41.5454ZM69.7959 58.0375C81.287 46.043 95.9557 37.5681 112.086 33.604C113.299 33.3009 114.564 33.2774 115.786 33.5353C117.009 33.7933 118.156 34.3259 119.143 35.0928C120.129 35.8598 120.928 36.841 121.479 37.9623C122.03 39.0836 122.319 40.3155 122.324 41.5649V85.9712C122.325 87.4133 121.946 88.8302 121.226 90.0793C120.505 91.3284 119.468 92.3656 118.219 93.0866C116.97 93.8077 115.554 94.187 114.112 94.1866C112.67 94.1861 111.253 93.8058 110.005 93.0839L71.5411 70.8831C70.4646 70.2509 69.5457 69.3825 68.8538 68.3433C68.1619 67.3042 67.7151 66.1215 67.547 64.8844C67.3789 63.6474 67.494 62.3883 67.8836 61.2022C68.2732 60.0161 68.927 58.934 69.7959 58.0375ZM49.2234 142.497C44.537 126.528 44.537 109.55 49.2234 93.5811C49.568 92.3802 50.1811 91.2735 51.0165 90.3445C51.8519 89.4156 52.8877 88.6888 54.0454 88.2191C55.2031 87.7494 56.4524 87.5492 57.6989 87.6336C58.9454 87.718 60.1564 88.0847 61.2402 88.7061L99.7527 110.931C101.001 111.652 102.037 112.689 102.758 113.938C103.478 115.186 103.858 116.602 103.858 118.044C103.858 119.485 103.478 120.902 102.758 122.15C102.037 123.398 101.001 124.435 99.7527 125.156L61.2402 147.382C60.1544 148.003 58.9415 148.368 57.6934 148.451C56.4453 148.533 55.1947 148.331 54.0366 147.858C52.8785 147.385 51.8432 146.655 51.0092 145.723C50.1753 144.791 49.5646 143.681 49.2234 142.477V142.497ZM122.348 194.513C122.344 195.763 122.055 196.994 121.503 198.116C120.952 199.237 120.153 200.218 119.167 200.985C118.181 201.752 117.033 202.285 115.811 202.543C114.588 202.801 113.323 202.777 112.111 202.474C95.9801 198.51 81.3114 190.035 69.8202 178.04C68.9485 177.143 68.2927 176.058 67.9024 174.869C67.5122 173.68 67.3977 172.418 67.5678 171.178C67.7379 169.938 68.188 168.753 68.884 167.713C69.58 166.673 70.5037 165.805 71.585 165.175L110.049 142.97C111.298 142.249 112.714 141.87 114.156 141.871C115.598 141.871 117.014 142.251 118.263 142.972C119.511 143.694 120.548 144.731 121.269 145.98C121.989 147.229 122.368 148.645 122.368 150.087L122.348 194.513ZM115.767 118C115.767 114.665 116.756 111.405 118.609 108.632C120.462 105.859 123.095 103.697 126.177 102.421C129.258 101.145 132.648 100.811 135.919 101.461C139.19 102.112 142.195 103.718 144.553 106.076C146.912 108.435 148.518 111.439 149.168 114.71C149.819 117.981 149.485 121.372 148.209 124.453C146.932 127.534 144.771 130.168 141.998 132.021C139.225 133.874 135.965 134.863 132.63 134.863C128.157 134.863 123.868 133.086 120.706 129.924C117.544 126.761 115.767 122.472 115.767 118ZM195.468 178.021C183.977 190.016 169.309 198.49 153.178 202.454C151.966 202.758 150.701 202.781 149.478 202.523C148.256 202.265 147.108 201.733 146.122 200.966C145.135 200.199 144.336 199.217 143.785 198.096C143.234 196.975 142.945 195.743 142.94 194.494V150.068C142.94 148.626 143.319 147.209 144.04 145.96C144.76 144.711 145.797 143.674 147.045 142.953C148.294 142.232 149.71 141.852 151.152 141.851C152.594 141.851 154.011 142.23 155.259 142.95L193.718 165.156C194.799 165.786 195.722 166.655 196.418 167.696C197.113 168.736 197.562 169.922 197.73 171.162C197.899 172.402 197.783 173.664 197.391 174.852C196.999 176.041 196.342 177.125 195.468 178.021ZM204.019 147.357L165.507 125.132C164.259 124.411 163.222 123.374 162.502 122.126C161.781 120.877 161.402 119.461 161.402 118.02C161.402 116.578 161.781 115.162 162.502 113.913C163.222 112.665 164.259 111.628 165.507 110.907L204.019 88.6817C205.103 88.0604 206.314 87.6936 207.561 87.6092C208.807 87.5249 210.056 87.7251 211.214 88.1947C212.372 88.6644 213.408 89.3912 214.243 90.3201C215.078 91.2491 215.692 92.3559 216.036 93.5567C220.723 109.525 220.723 126.504 216.036 142.473C215.693 143.674 215.08 144.782 214.245 145.712C213.41 146.642 212.375 147.37 211.217 147.841C210.059 148.311 208.809 148.512 207.562 148.429C206.315 148.345 205.104 147.979 204.019 147.357Z" fill="url(#paint9_linear_123_13)"/>
<path d="M140.893 118C140.888 119.633 140.399 121.228 139.488 122.584C138.577 123.94 137.285 124.995 135.775 125.617C134.265 126.238 132.604 126.399 131.003 126.077C129.401 125.755 127.931 124.967 126.778 123.81C125.625 122.653 124.84 121.181 124.523 119.579C124.207 117.977 124.372 116.316 124.998 114.808C125.624 113.299 126.683 112.01 128.041 111.103C129.4 110.197 130.996 109.713 132.63 109.713C134.823 109.719 136.925 110.595 138.474 112.148C140.023 113.702 140.893 115.806 140.893 118Z" fill="url(#paint10_linear_123_13)"/>
<defs>
<linearGradient id="paint0_linear_123_13" x1="-12.0019" y1="215.68" x2="122.514" y2="232.197" gradientUnits="userSpaceOnUse">
<stop offset="0.15" stop-color="#D3A84C"/>
<stop offset="0.21" stop-color="#E8C96F"/>
<stop offset="0.27" stop-color="#F9E38A"/>
<stop offset="0.31" stop-color="#FFEC94"/>
<stop offset="0.33" stop-color="#FCE68E"/>
<stop offset="0.5" stop-color="#E6BE69"/>
<stop offset="0.56" stop-color="#EFC870"/>
<stop offset="0.69" stop-color="#FFD87C"/>
<stop offset="0.85" stop-color="#C19B48"/>
<stop offset="0.9" stop-color="#BF9945"/>
<stop offset="0.94" stop-color="#B7913C"/>
<stop offset="0.97" stop-color="#AA832D"/>
<stop offset="1" stop-color="#956D13"/>
</linearGradient>
<linearGradient id="paint1_linear_123_13" x1="12.3341" y1="308.968" x2="83.4555" y2="308.968" gradientUnits="userSpaceOnUse">
<stop offset="0.1" stop-color="#A47A1E"/>
<stop offset="0.18" stop-color="#B58C30"/>
<stop offset="0.4" stop-color="#E2BA5E"/>
<stop offset="0.76" stop-color="#FFD87C"/>
</linearGradient>
<linearGradient id="paint2_linear_123_13" x1="57.6619" y1="308.968" x2="147.805" y2="308.968" gradientUnits="userSpaceOnUse">
<stop stop-color="#D3A84C"/>
<stop offset="0.1" stop-color="#E8C96F"/>
<stop offset="0.19" stop-color="#F9E38A"/>
<stop offset="0.25" stop-color="#FFEC94"/>
<stop offset="0.38" stop-color="#F9E18A"/>
<stop offset="0.5" stop-color="#E6BE69"/>
<stop offset="0.61" stop-color="#FFD87C"/>
<stop offset="1" stop-color="#A47A1E"/>
</linearGradient>
<linearGradient id="paint3_linear_123_13" x1="602.141" y1="280.04" x2="383.063" y2="280.04" gradientUnits="userSpaceOnUse">
<stop offset="0.02" stop-color="#A47A1E"/>
<stop offset="0.09" stop-color="#C09539"/>
<stop offset="0.15" stop-color="#D3A84C"/>
<stop offset="0.21" stop-color="#E8C96F"/>
<stop offset="0.27" stop-color="#F9E38A"/>
<stop offset="0.31" stop-color="#FFEC94"/>
<stop offset="0.33" stop-color="#FCE68E"/>
<stop offset="0.5" stop-color="#E6BE69"/>
<stop offset="0.56" stop-color="#EFC870"/>
<stop offset="0.69" stop-color="#FFD87C"/>
<stop offset="0.85" stop-color="#C19B48"/>
<stop offset="0.9" stop-color="#BF9945"/>
<stop offset="0.94" stop-color="#B7913C"/>
<stop offset="0.97" stop-color="#AA832D"/>
<stop offset="1" stop-color="#956D13"/>
</linearGradient>
<linearGradient id="paint4_linear_123_13" x1="27.1883" y1="288.649" x2="475.806" y2="289.079" gradientUnits="userSpaceOnUse">
<stop offset="0.01" stop-color="#A47A1E"/>
<stop offset="0.09" stop-color="#C09539"/>
<stop offset="0.15" stop-color="#D3A84C"/>
<stop offset="0.21" stop-color="#E8C96F"/>
<stop offset="0.27" stop-color="#F9E38A"/>
<stop offset="0.31" stop-color="#FFEC94"/>
<stop offset="0.33" stop-color="#FCE68E"/>
<stop offset="0.5" stop-color="#E6BE69"/>
<stop offset="0.56" stop-color="#EFC870"/>
<stop offset="0.69" stop-color="#FFD87C"/>
<stop offset="0.85" stop-color="#C19B48"/>
<stop offset="0.93" stop-color="#BF9946"/>
<stop offset="0.96" stop-color="#BA933F"/>
<stop offset="0.97" stop-color="#B08934"/>
<stop offset="0.99" stop-color="#A27B23"/>
<stop offset="1" stop-color="#956D13"/>
</linearGradient>
<linearGradient id="paint5_linear_123_13" x1="351.906" y1="-1030.58" x2="351.882" y2="1534.57" gradientUnits="userSpaceOnUse">
<stop offset="0.08" stop-color="#D3A84C"/>
<stop offset="0.13" stop-color="#E8C96F"/>
<stop offset="0.18" stop-color="#F9E38A"/>
<stop offset="0.21" stop-color="#FFEC94"/>
<stop offset="0.3" stop-color="#C3A146"/>
<stop offset="0.35" stop-color="#A47A1E"/>
<stop offset="0.37" stop-color="#AA8125"/>
<stop offset="0.46" stop-color="#D5AD56"/>
<stop offset="0.5" stop-color="#E6BE69"/>
<stop offset="0.63" stop-color="#FCD57A"/>
<stop offset="0.69" stop-color="#FFD87C"/>
<stop offset="0.79" stop-color="#B7913C"/>
<stop offset="0.8" stop-color="#956D13"/>
</linearGradient>
<linearGradient id="paint6_linear_123_13" x1="416.827" y1="178.417" x2="271.244" y2="32.8383" gradientUnits="userSpaceOnUse">
<stop stop-color="#A47A1E"/>
<stop offset="0.08" stop-color="#C09539"/>
<stop offset="0.15" stop-color="#D3A84C"/>
<stop offset="0.21" stop-color="#E8C96F"/>
<stop offset="0.27" stop-color="#F9E38A"/>
<stop offset="0.31" stop-color="#FFEC94"/>
<stop offset="0.33" stop-color="#FCE68E"/>
<stop offset="0.5" stop-color="#E6BE69"/>
<stop offset="0.56" stop-color="#EFC870"/>
<stop offset="0.69" stop-color="#FFD87C"/>
<stop offset="0.85" stop-color="#C19B48"/>
<stop offset="0.9" stop-color="#BF9945"/>
<stop offset="0.94" stop-color="#B7913C"/>
<stop offset="0.97" stop-color="#AA832D"/>
<stop offset="1" stop-color="#956D13"/>
</linearGradient>
<linearGradient id="paint7_linear_123_13" x1="436.058" y1="9.14789" x2="247.356" y2="243.097" gradientUnits="userSpaceOnUse">
<stop stop-color="#A47A1E"/>
<stop offset="0.08" stop-color="#C09539"/>
<stop offset="0.15" stop-color="#D3A84C"/>
<stop offset="0.21" stop-color="#E8C96F"/>
<stop offset="0.27" stop-color="#F9E38A"/>
<stop offset="0.31" stop-color="#FFEC94"/>
<stop offset="0.33" stop-color="#FCE68E"/>
<stop offset="0.5" stop-color="#E6BE69"/>
<stop offset="0.56" stop-color="#EFC870"/>
<stop offset="0.69" stop-color="#FFD87C"/>
<stop offset="0.85" stop-color="#C19B48"/>
<stop offset="0.9" stop-color="#BF9945"/>
<stop offset="0.94" stop-color="#B7913C"/>
<stop offset="0.97" stop-color="#AA832D"/>
<stop offset="1" stop-color="#956D13"/>
</linearGradient>
<linearGradient id="paint8_linear_123_13" x1="346.476" y1="-893.353" x2="-132.994" y2="1374.28" gradientUnits="userSpaceOnUse">
<stop offset="0.08" stop-color="#D3A84C"/>
<stop offset="0.13" stop-color="#E8C96F"/>
<stop offset="0.18" stop-color="#F9E38A"/>
<stop offset="0.21" stop-color="#FFEC94"/>
<stop offset="0.3" stop-color="#C3A146"/>
<stop offset="0.35" stop-color="#A47A1E"/>
<stop offset="0.37" stop-color="#AA8125"/>
<stop offset="0.46" stop-color="#D5AD56"/>
<stop offset="0.5" stop-color="#E6BE69"/>
<stop offset="0.63" stop-color="#FCD57A"/>
<stop offset="0.69" stop-color="#FFD87C"/>
<stop offset="0.79" stop-color="#B7913C"/>
<stop offset="0.8" stop-color="#956D13"/>
</linearGradient>
<linearGradient id="paint9_linear_123_13" x1="149.795" y1="36.8507" x2="111.311" y2="218.844" gradientUnits="userSpaceOnUse">
<stop stop-color="#A47A1E"/>
<stop offset="0.08" stop-color="#C09539"/>
<stop offset="0.15" stop-color="#D3A84C"/>
<stop offset="0.21" stop-color="#E8C96F"/>
<stop offset="0.27" stop-color="#F9E38A"/>
<stop offset="0.31" stop-color="#FFEC94"/>
<stop offset="0.33" stop-color="#FCE68E"/>
<stop offset="0.5" stop-color="#E6BE69"/>
<stop offset="0.56" stop-color="#EFC870"/>
<stop offset="0.69" stop-color="#FFD87C"/>
<stop offset="0.85" stop-color="#C19B48"/>
<stop offset="0.9" stop-color="#BF9945"/>
<stop offset="0.94" stop-color="#B7913C"/>
<stop offset="0.97" stop-color="#AA832D"/>
<stop offset="1" stop-color="#956D13"/>
</linearGradient>
<linearGradient id="paint10_linear_123_13" x1="157.687" y1="-0.48682" x2="101.508" y2="265.22" gradientUnits="userSpaceOnUse">
<stop stop-color="#A47A1E"/>
<stop offset="0.08" stop-color="#C09539"/>
<stop offset="0.15" stop-color="#D3A84C"/>
<stop offset="0.21" stop-color="#E8C96F"/>
<stop offset="0.27" stop-color="#F9E38A"/>
<stop offset="0.31" stop-color="#FFEC94"/>
<stop offset="0.33" stop-color="#FCE68E"/>
<stop offset="0.5" stop-color="#E6BE69"/>
<stop offset="0.56" stop-color="#EFC870"/>
<stop offset="0.69" stop-color="#FFD87C"/>
<stop offset="0.85" stop-color="#C19B48"/>
<stop offset="0.9" stop-color="#BF9945"/>
<stop offset="0.94" stop-color="#B7913C"/>
<stop offset="0.97" stop-color="#AA832D"/>
<stop offset="1" stop-color="#956D13"/>
</linearGradient>
</defs>
</svg>
