<svg width="585" height="585" viewBox="0 0 585 585" fill="none" xmlns="http://www.w3.org/2000/svg">
<path d="M123.069 304.005L50.1588 296.054L50.8608 289.629C50.8669 289.576 50.8625 289.523 50.8478 289.472C50.8332 289.421 50.8086 289.374 50.7755 289.332C50.7424 289.291 50.7014 289.257 50.655 289.232C50.6085 289.206 50.5575 289.19 50.5049 289.185L9.7889 284.744C9.73635 284.738 9.68311 284.742 9.63227 284.757C9.58144 284.771 9.53401 284.796 9.49275 284.829C9.45149 284.862 9.4172 284.903 9.39189 284.95C9.36657 284.996 9.35072 285.047 9.34527 285.1L7.2734 304.112C7.26243 304.218 7.29363 304.324 7.36025 304.407C7.42686 304.49 7.52352 304.544 7.62927 304.556L48.3501 308.997C48.4555 309.008 48.5609 308.977 48.6432 308.91C48.7254 308.843 48.7778 308.746 48.7889 308.641L49.2764 304.005L122.182 311.951L123.069 304.005Z" fill="url(#paint0_linear_123_12)"/>
<path d="M118.594 362.295H32.0969C31.5826 362.295 31.1658 362.712 31.1658 363.227V408.701C31.1658 409.215 31.5826 409.632 32.0969 409.632H118.594C119.108 409.632 119.525 409.215 119.525 408.701V363.227C119.525 362.712 119.108 362.295 118.594 362.295Z" fill="url(#paint1_linear_123_12)"/>
<path d="M157.16 339.68H61.381C60.6702 339.68 60.094 340.256 60.094 340.967V430.965C60.094 431.675 60.6702 432.252 61.381 432.252H157.16C157.871 432.252 158.447 431.675 158.447 430.965V340.967C158.447 340.256 157.871 339.68 157.16 339.68Z" fill="url(#paint2_linear_123_12)"/>
<path d="M568.912 252.544L478.798 325.991V325.479H440.7V388.596H478.798V388.089L568.912 461.531V252.544Z" fill="url(#paint3_linear_123_12)"/>
<path d="M438.516 249.936H82.329C80.762 249.936 79.4917 251.207 79.4917 252.774V478.525C79.4917 480.092 80.762 481.362 82.329 481.362H438.516C440.083 481.362 441.353 480.092 441.353 478.525V252.774C441.353 251.207 440.083 249.936 438.516 249.936Z" fill="url(#paint4_linear_123_12)"/>
<path d="M358.897 268.515C401.994 268.515 436.932 233.578 436.932 190.481C436.932 147.384 401.994 112.447 358.897 112.447C315.8 112.447 280.863 147.384 280.863 190.481C280.863 233.578 315.8 268.515 358.897 268.515Z" fill="url(#paint5_linear_123_12)"/>
<path d="M409.987 89.9925C354.49 61.776 286.65 83.8939 258.409 139.391C230.168 194.888 252.306 262.763 307.807 290.969C363.309 319.176 431.169 297.073 459.386 241.576C487.602 186.079 465.489 118.214 409.987 89.9925ZM407.404 120.218C408.033 118.982 408.936 117.906 410.044 117.072C411.151 116.238 412.435 115.668 413.796 115.405C415.157 115.142 416.561 115.192 417.9 115.553C419.238 115.914 420.477 116.576 421.522 117.488C435.448 129.496 445.666 145.222 450.981 162.825C451.392 164.147 451.495 165.546 451.284 166.915C451.073 168.283 450.553 169.585 449.764 170.723C448.975 171.861 447.936 172.803 446.728 173.48C445.52 174.156 444.174 174.549 442.791 174.627L393.71 177.24C392.115 177.326 390.525 176.99 389.102 176.265C387.678 175.541 386.47 174.455 385.6 173.116C384.729 171.776 384.227 170.231 384.144 168.636C384.061 167.041 384.399 165.452 385.125 164.029L407.404 120.218ZM327 99.7913C344.353 93.7245 363.075 92.7218 380.976 96.9004C382.327 97.2061 383.591 97.8155 384.671 98.6825C385.751 99.5495 386.62 100.651 387.21 101.904C387.801 103.157 388.098 104.528 388.08 105.913C388.062 107.298 387.728 108.66 387.104 109.897L364.825 153.709C364.1 155.13 363.014 156.336 361.676 157.204C360.338 158.073 358.794 158.575 357.201 158.659C355.608 158.743 354.02 158.406 352.598 157.683C351.176 156.959 349.969 155.875 349.099 154.538L322.286 113.339C321.537 112.175 321.063 110.856 320.899 109.481C320.735 108.107 320.886 106.713 321.341 105.406C321.796 104.099 322.542 102.912 323.523 101.936C324.505 100.96 325.695 100.22 327.005 99.7718L327 99.7913ZM264.352 172.775C267.73 154.667 276.245 137.914 288.883 124.512C289.824 123.499 290.984 122.714 292.274 122.215C293.564 121.716 294.951 121.518 296.329 121.634C297.707 121.75 299.04 122.179 300.229 122.887C301.417 123.595 302.428 124.565 303.186 125.721L329.998 166.954C330.868 168.292 331.371 169.835 331.455 171.428C331.54 173.022 331.204 174.609 330.48 176.031C329.757 177.454 328.672 178.661 327.335 179.531C325.998 180.401 324.455 180.904 322.861 180.989L273.741 183.607C272.362 183.673 270.986 183.426 269.717 182.883C268.448 182.34 267.318 181.516 266.414 180.472C265.51 179.429 264.855 178.194 264.497 176.861C264.14 175.528 264.09 174.13 264.352 172.775ZM310.391 260.769C309.76 262.006 308.855 263.082 307.745 263.916C306.634 264.749 305.348 265.319 303.984 265.58C302.62 265.841 301.215 265.787 299.875 265.422C298.536 265.057 297.297 264.391 296.254 263.474C282.328 251.465 272.108 235.74 266.789 218.137C266.38 216.814 266.277 215.415 266.489 214.047C266.7 212.678 267.221 211.376 268.011 210.239C268.8 209.101 269.839 208.159 271.047 207.482C272.255 206.806 273.602 206.413 274.984 206.334L324.066 203.721C325.664 203.629 327.258 203.961 328.687 204.683C330.115 205.405 331.328 206.492 332.202 207.833C333.076 209.175 333.579 210.723 333.663 212.322C333.746 213.921 333.405 215.513 332.675 216.938L310.391 260.769ZM342.264 182.023C343.937 178.733 346.549 176.014 349.768 174.208C352.986 172.403 356.668 171.592 360.348 171.879C364.028 172.166 367.539 173.538 370.439 175.821C373.339 178.104 375.497 181.195 376.641 184.704C377.784 188.213 377.861 191.983 376.862 195.536C375.863 199.089 373.833 202.265 371.028 204.665C368.224 207.064 364.771 208.578 361.106 209.015C357.441 209.452 353.729 208.792 350.439 207.119C348.254 206.008 346.31 204.478 344.716 202.616C343.123 200.753 341.912 198.595 341.153 196.264C340.394 193.934 340.101 191.477 340.292 189.033C340.482 186.59 341.153 184.207 342.264 182.023ZM390.79 281.195C373.437 287.262 354.715 288.265 336.814 284.086C335.463 283.78 334.2 283.17 333.121 282.302C332.041 281.435 331.173 280.333 330.583 279.08C329.993 277.828 329.696 276.457 329.714 275.072C329.733 273.688 330.067 272.325 330.691 271.089L352.974 227.258C353.697 225.835 354.781 224.627 356.119 223.756C357.456 222.885 358.999 222.382 360.593 222.297C362.187 222.212 363.775 222.548 365.197 223.272C366.62 223.996 367.826 225.081 368.696 226.419L395.509 267.618C396.26 268.782 396.736 270.102 396.9 271.478C397.065 272.853 396.914 274.248 396.46 275.557C396.005 276.866 395.258 278.054 394.275 279.03C393.293 280.007 392.101 280.747 390.79 281.195ZM414.609 255.231L387.796 214.003C386.925 212.666 386.421 211.123 386.336 209.529C386.25 207.936 386.586 206.348 387.309 204.925C388.032 203.503 389.117 202.295 390.454 201.425C391.792 200.555 393.335 200.052 394.929 199.968L444.049 197.35C445.43 197.28 446.81 197.526 448.082 198.068C449.355 198.61 450.487 199.435 451.394 200.479C452.3 201.524 452.957 202.761 453.315 204.098C453.673 205.434 453.721 206.834 453.458 208.192C450.075 226.299 441.558 243.052 428.922 256.454C427.979 257.469 426.818 258.255 425.527 258.753C424.235 259.252 422.847 259.45 421.467 259.332C420.088 259.214 418.753 258.783 417.565 258.073C416.376 257.362 415.366 256.39 414.609 255.231Z" fill="url(#paint6_linear_123_12)"/>
<path d="M367.048 194.63C366.228 196.241 364.948 197.573 363.37 198.457C361.793 199.341 359.988 199.738 358.185 199.596C356.383 199.455 354.662 198.783 353.241 197.664C351.82 196.545 350.763 195.03 350.203 193.311C349.643 191.591 349.606 189.744 350.095 188.003C350.584 186.263 351.579 184.706 352.953 183.53C354.327 182.354 356.019 181.612 357.814 181.398C359.61 181.183 361.429 181.506 363.041 182.325C364.113 182.869 365.067 183.619 365.849 184.532C366.631 185.445 367.225 186.503 367.597 187.646C367.969 188.789 368.112 189.994 368.018 191.192C367.924 192.391 367.595 193.559 367.048 194.63Z" fill="url(#paint7_linear_123_12)"/>
<path d="M139.63 265.532C178.572 265.532 210.142 233.962 210.142 195.02C210.142 156.077 178.572 124.508 139.63 124.508C100.687 124.508 69.1177 156.077 69.1177 195.02C69.1177 233.962 100.687 265.532 139.63 265.532Z" fill="url(#paint8_linear_123_12)"/>
<path d="M139.63 93.1564C83.3722 93.1564 37.7715 138.762 37.7715 195.044C37.7715 251.326 83.3625 296.887 139.63 296.887C195.897 296.887 241.517 251.282 241.517 195.024C241.517 138.767 195.887 93.1564 139.63 93.1564ZM149.921 118.545C149.926 117.296 150.215 116.064 150.766 114.943C151.317 113.822 152.116 112.84 153.102 112.073C154.088 111.306 155.236 110.774 156.459 110.516C157.681 110.258 158.946 110.281 160.158 110.584C176.298 114.551 190.974 123.033 202.468 135.037C203.341 135.935 203.997 137.02 204.388 138.209C204.778 139.399 204.892 140.662 204.722 141.902C204.551 143.142 204.1 144.327 203.403 145.367C202.706 146.406 201.781 147.274 200.699 147.903L162.24 170.089C160.991 170.809 159.574 171.188 158.133 171.188C156.691 171.187 155.274 170.807 154.026 170.086C152.777 169.365 151.741 168.328 151.02 167.079C150.3 165.83 149.92 164.413 149.921 162.971V118.545ZM76.7959 135.037C88.287 123.043 102.956 114.568 119.086 110.604C120.299 110.301 121.564 110.277 122.786 110.535C124.009 110.793 125.156 111.326 126.143 112.093C127.129 112.86 127.928 113.841 128.479 114.962C129.03 116.084 129.319 117.315 129.324 118.565V162.971C129.325 164.413 128.946 165.83 128.226 167.079C127.505 168.328 126.468 169.366 125.219 170.087C123.97 170.808 122.554 171.187 121.112 171.187C119.67 171.186 118.253 170.806 117.005 170.084L78.5411 147.883C77.4646 147.251 76.5457 146.382 75.8538 145.343C75.1619 144.304 74.7151 143.121 74.547 141.884C74.3789 140.647 74.494 139.388 74.8836 138.202C75.2732 137.016 75.927 135.934 76.7959 135.037ZM56.2234 219.497C51.537 203.528 51.537 186.55 56.2234 170.581C56.568 169.38 57.1811 168.273 58.0165 167.345C58.8519 166.416 59.8877 165.689 61.0454 165.219C62.2031 164.749 63.4524 164.549 64.6989 164.634C65.9454 164.718 67.1564 165.085 68.2402 165.706L106.753 187.931C108.001 188.652 109.037 189.689 109.758 190.938C110.478 192.186 110.858 193.602 110.858 195.044C110.858 196.485 110.478 197.902 109.758 199.15C109.037 200.398 108.001 201.435 106.753 202.156L68.2402 224.382C67.1544 225.003 65.9415 225.368 64.6934 225.451C63.4453 225.533 62.1947 225.331 61.0366 224.858C59.8785 224.385 58.8432 223.655 58.0092 222.723C57.1753 221.791 56.5646 220.681 56.2234 219.477V219.497ZM129.348 271.513C129.344 272.763 129.055 273.994 128.503 275.116C127.952 276.237 127.153 277.218 126.167 277.985C125.181 278.752 124.033 279.285 122.811 279.543C121.588 279.801 120.323 279.777 119.111 279.474C102.98 275.51 88.3114 267.035 76.8202 255.04C75.9485 254.143 75.2927 253.058 74.9024 251.869C74.5122 250.68 74.3977 249.418 74.5678 248.178C74.7379 246.938 75.188 245.753 75.884 244.713C76.58 243.673 77.5037 242.805 78.585 242.175L117.049 219.97C118.298 219.249 119.714 218.87 121.156 218.871C122.598 218.871 124.014 219.251 125.263 219.972C126.511 220.694 127.548 221.731 128.269 222.98C128.989 224.229 129.368 225.645 129.368 227.087L129.348 271.513ZM122.767 195C122.767 191.665 123.756 188.405 125.609 185.632C127.462 182.859 130.095 180.697 133.177 179.421C136.258 178.145 139.648 177.811 142.919 178.461C146.19 179.112 149.195 180.718 151.553 183.076C153.912 185.435 155.518 188.439 156.168 191.71C156.819 194.981 156.485 198.372 155.209 201.453C153.932 204.534 151.771 207.168 148.998 209.021C146.225 210.874 142.965 211.863 139.63 211.863C135.157 211.863 130.868 210.086 127.706 206.924C124.544 203.761 122.767 199.472 122.767 195ZM202.468 255.021C190.977 267.016 176.309 275.49 160.178 279.454C158.966 279.758 157.701 279.781 156.478 279.523C155.256 279.265 154.108 278.733 153.122 277.966C152.135 277.199 151.336 276.217 150.785 275.096C150.234 273.975 149.945 272.743 149.94 271.494V227.068C149.94 225.626 150.319 224.209 151.04 222.96C151.76 221.711 152.797 220.674 154.045 219.953C155.294 219.232 156.71 218.852 158.152 218.851C159.594 218.851 161.011 219.23 162.259 219.95L200.718 242.156C201.799 242.786 202.722 243.655 203.418 244.696C204.113 245.736 204.562 246.922 204.73 248.162C204.899 249.402 204.783 250.664 204.391 251.852C203.999 253.041 203.342 254.125 202.468 255.021ZM211.019 224.357L172.507 202.132C171.259 201.411 170.222 200.374 169.502 199.126C168.781 197.877 168.402 196.461 168.402 195.02C168.402 193.578 168.781 192.162 169.502 190.913C170.222 189.665 171.259 188.628 172.507 187.907L211.019 165.682C212.103 165.06 213.314 164.694 214.561 164.609C215.807 164.525 217.056 164.725 218.214 165.195C219.372 165.664 220.408 166.391 221.243 167.32C222.078 168.249 222.692 169.356 223.036 170.557C227.723 186.525 227.723 203.504 223.036 219.473C222.693 220.674 222.08 221.782 221.245 222.712C220.41 223.642 219.375 224.37 218.217 224.841C217.059 225.311 215.809 225.512 214.562 225.429C213.315 225.345 212.104 224.979 211.019 224.357Z" fill="url(#paint9_linear_123_12)"/>
<path d="M147.893 195C147.888 196.633 147.399 198.228 146.488 199.584C145.577 200.94 144.285 201.995 142.775 202.617C141.265 203.238 139.604 203.399 138.003 203.077C136.401 202.755 134.931 201.967 133.778 200.81C132.625 199.653 131.84 198.181 131.523 196.579C131.207 194.977 131.372 193.316 131.998 191.808C132.624 190.299 133.683 189.01 135.041 188.103C136.4 187.197 137.996 186.713 139.63 186.713C141.823 186.719 143.925 187.595 145.474 189.148C147.023 190.702 147.893 192.806 147.893 195Z" fill="url(#paint10_linear_123_12)"/>
<defs>
<linearGradient id="paint0_linear_123_12" x1="-5.00186" y1="292.68" x2="129.514" y2="309.197" gradientUnits="userSpaceOnUse">
<stop offset="0.15" stop-color="#D3A84C"/>
<stop offset="0.21" stop-color="#E8C96F"/>
<stop offset="0.27" stop-color="#F9E38A"/>
<stop offset="0.31" stop-color="#FFEC94"/>
<stop offset="0.33" stop-color="#FCE68E"/>
<stop offset="0.5" stop-color="#E6BE69"/>
<stop offset="0.56" stop-color="#EFC870"/>
<stop offset="0.69" stop-color="#FFD87C"/>
<stop offset="0.85" stop-color="#C19B48"/>
<stop offset="0.9" stop-color="#BF9945"/>
<stop offset="0.94" stop-color="#B7913C"/>
<stop offset="0.97" stop-color="#AA832D"/>
<stop offset="1" stop-color="#956D13"/>
</linearGradient>
<linearGradient id="paint1_linear_123_12" x1="19.3341" y1="385.968" x2="90.4555" y2="385.968" gradientUnits="userSpaceOnUse">
<stop offset="0.1" stop-color="#A47A1E"/>
<stop offset="0.18" stop-color="#B58C30"/>
<stop offset="0.4" stop-color="#E2BA5E"/>
<stop offset="0.76" stop-color="#FFD87C"/>
</linearGradient>
<linearGradient id="paint2_linear_123_12" x1="64.6619" y1="385.968" x2="154.805" y2="385.968" gradientUnits="userSpaceOnUse">
<stop stop-color="#D3A84C"/>
<stop offset="0.1" stop-color="#E8C96F"/>
<stop offset="0.19" stop-color="#F9E38A"/>
<stop offset="0.25" stop-color="#FFEC94"/>
<stop offset="0.38" stop-color="#F9E18A"/>
<stop offset="0.5" stop-color="#E6BE69"/>
<stop offset="0.61" stop-color="#FFD87C"/>
<stop offset="1" stop-color="#A47A1E"/>
</linearGradient>
<linearGradient id="paint3_linear_123_12" x1="609.141" y1="357.04" x2="390.063" y2="357.04" gradientUnits="userSpaceOnUse">
<stop offset="0.02" stop-color="#A47A1E"/>
<stop offset="0.09" stop-color="#C09539"/>
<stop offset="0.15" stop-color="#D3A84C"/>
<stop offset="0.21" stop-color="#E8C96F"/>
<stop offset="0.27" stop-color="#F9E38A"/>
<stop offset="0.31" stop-color="#FFEC94"/>
<stop offset="0.33" stop-color="#FCE68E"/>
<stop offset="0.5" stop-color="#E6BE69"/>
<stop offset="0.56" stop-color="#EFC870"/>
<stop offset="0.69" stop-color="#FFD87C"/>
<stop offset="0.85" stop-color="#C19B48"/>
<stop offset="0.9" stop-color="#BF9945"/>
<stop offset="0.94" stop-color="#B7913C"/>
<stop offset="0.97" stop-color="#AA832D"/>
<stop offset="1" stop-color="#956D13"/>
</linearGradient>
<linearGradient id="paint4_linear_123_12" x1="34.1883" y1="365.649" x2="482.806" y2="366.079" gradientUnits="userSpaceOnUse">
<stop offset="0.01" stop-color="#A47A1E"/>
<stop offset="0.09" stop-color="#C09539"/>
<stop offset="0.15" stop-color="#D3A84C"/>
<stop offset="0.21" stop-color="#E8C96F"/>
<stop offset="0.27" stop-color="#F9E38A"/>
<stop offset="0.31" stop-color="#FFEC94"/>
<stop offset="0.33" stop-color="#FCE68E"/>
<stop offset="0.5" stop-color="#E6BE69"/>
<stop offset="0.56" stop-color="#EFC870"/>
<stop offset="0.69" stop-color="#FFD87C"/>
<stop offset="0.85" stop-color="#C19B48"/>
<stop offset="0.93" stop-color="#BF9946"/>
<stop offset="0.96" stop-color="#BA933F"/>
<stop offset="0.97" stop-color="#B08934"/>
<stop offset="0.99" stop-color="#A27B23"/>
<stop offset="1" stop-color="#956D13"/>
</linearGradient>
<linearGradient id="paint5_linear_123_12" x1="358.906" y1="-953.576" x2="358.882" y2="1611.57" gradientUnits="userSpaceOnUse">
<stop offset="0.08" stop-color="#D3A84C"/>
<stop offset="0.13" stop-color="#E8C96F"/>
<stop offset="0.18" stop-color="#F9E38A"/>
<stop offset="0.21" stop-color="#FFEC94"/>
<stop offset="0.3" stop-color="#C3A146"/>
<stop offset="0.35" stop-color="#A47A1E"/>
<stop offset="0.37" stop-color="#AA8125"/>
<stop offset="0.46" stop-color="#D5AD56"/>
<stop offset="0.5" stop-color="#E6BE69"/>
<stop offset="0.63" stop-color="#FCD57A"/>
<stop offset="0.69" stop-color="#FFD87C"/>
<stop offset="0.79" stop-color="#B7913C"/>
<stop offset="0.8" stop-color="#956D13"/>
</linearGradient>
<linearGradient id="paint6_linear_123_12" x1="423.827" y1="255.417" x2="278.244" y2="109.838" gradientUnits="userSpaceOnUse">
<stop stop-color="#A47A1E"/>
<stop offset="0.08" stop-color="#C09539"/>
<stop offset="0.15" stop-color="#D3A84C"/>
<stop offset="0.21" stop-color="#E8C96F"/>
<stop offset="0.27" stop-color="#F9E38A"/>
<stop offset="0.31" stop-color="#FFEC94"/>
<stop offset="0.33" stop-color="#FCE68E"/>
<stop offset="0.5" stop-color="#E6BE69"/>
<stop offset="0.56" stop-color="#EFC870"/>
<stop offset="0.69" stop-color="#FFD87C"/>
<stop offset="0.85" stop-color="#C19B48"/>
<stop offset="0.9" stop-color="#BF9945"/>
<stop offset="0.94" stop-color="#B7913C"/>
<stop offset="0.97" stop-color="#AA832D"/>
<stop offset="1" stop-color="#956D13"/>
</linearGradient>
<linearGradient id="paint7_linear_123_12" x1="443.058" y1="86.1479" x2="254.356" y2="320.097" gradientUnits="userSpaceOnUse">
<stop stop-color="#A47A1E"/>
<stop offset="0.08" stop-color="#C09539"/>
<stop offset="0.15" stop-color="#D3A84C"/>
<stop offset="0.21" stop-color="#E8C96F"/>
<stop offset="0.27" stop-color="#F9E38A"/>
<stop offset="0.31" stop-color="#FFEC94"/>
<stop offset="0.33" stop-color="#FCE68E"/>
<stop offset="0.5" stop-color="#E6BE69"/>
<stop offset="0.56" stop-color="#EFC870"/>
<stop offset="0.69" stop-color="#FFD87C"/>
<stop offset="0.85" stop-color="#C19B48"/>
<stop offset="0.9" stop-color="#BF9945"/>
<stop offset="0.94" stop-color="#B7913C"/>
<stop offset="0.97" stop-color="#AA832D"/>
<stop offset="1" stop-color="#956D13"/>
</linearGradient>
<linearGradient id="paint8_linear_123_12" x1="353.476" y1="-816.353" x2="-125.994" y2="1451.28" gradientUnits="userSpaceOnUse">
<stop offset="0.08" stop-color="#D3A84C"/>
<stop offset="0.13" stop-color="#E8C96F"/>
<stop offset="0.18" stop-color="#F9E38A"/>
<stop offset="0.21" stop-color="#FFEC94"/>
<stop offset="0.3" stop-color="#C3A146"/>
<stop offset="0.35" stop-color="#A47A1E"/>
<stop offset="0.37" stop-color="#AA8125"/>
<stop offset="0.46" stop-color="#D5AD56"/>
<stop offset="0.5" stop-color="#E6BE69"/>
<stop offset="0.63" stop-color="#FCD57A"/>
<stop offset="0.69" stop-color="#FFD87C"/>
<stop offset="0.79" stop-color="#B7913C"/>
<stop offset="0.8" stop-color="#956D13"/>
</linearGradient>
<linearGradient id="paint9_linear_123_12" x1="156.795" y1="113.851" x2="118.311" y2="295.844" gradientUnits="userSpaceOnUse">
<stop stop-color="#A47A1E"/>
<stop offset="0.08" stop-color="#C09539"/>
<stop offset="0.15" stop-color="#D3A84C"/>
<stop offset="0.21" stop-color="#E8C96F"/>
<stop offset="0.27" stop-color="#F9E38A"/>
<stop offset="0.31" stop-color="#FFEC94"/>
<stop offset="0.33" stop-color="#FCE68E"/>
<stop offset="0.5" stop-color="#E6BE69"/>
<stop offset="0.56" stop-color="#EFC870"/>
<stop offset="0.69" stop-color="#FFD87C"/>
<stop offset="0.85" stop-color="#C19B48"/>
<stop offset="0.9" stop-color="#BF9945"/>
<stop offset="0.94" stop-color="#B7913C"/>
<stop offset="0.97" stop-color="#AA832D"/>
<stop offset="1" stop-color="#956D13"/>
</linearGradient>
<linearGradient id="paint10_linear_123_12" x1="164.687" y1="76.5132" x2="108.508" y2="342.22" gradientUnits="userSpaceOnUse">
<stop stop-color="#A47A1E"/>
<stop offset="0.08" stop-color="#C09539"/>
<stop offset="0.15" stop-color="#D3A84C"/>
<stop offset="0.21" stop-color="#E8C96F"/>
<stop offset="0.27" stop-color="#F9E38A"/>
<stop offset="0.31" stop-color="#FFEC94"/>
<stop offset="0.33" stop-color="#FCE68E"/>
<stop offset="0.5" stop-color="#E6BE69"/>
<stop offset="0.56" stop-color="#EFC870"/>
<stop offset="0.69" stop-color="#FFD87C"/>
<stop offset="0.85" stop-color="#C19B48"/>
<stop offset="0.9" stop-color="#BF9945"/>
<stop offset="0.94" stop-color="#B7913C"/>
<stop offset="0.97" stop-color="#AA832D"/>
<stop offset="1" stop-color="#956D13"/>
</linearGradient>
</defs>
</svg>
