<svg width="112" height="81" viewBox="0 0 112 81" fill="none" xmlns="http://www.w3.org/2000/svg">
<path d="M23.4036 45.2814L8.94609 43.7047L9.08529 42.4307C9.0865 42.4203 9.08562 42.4097 9.08272 42.3996C9.07982 42.3895 9.07494 42.3801 9.06838 42.3719C9.06182 42.3638 9.05369 42.357 9.04448 42.3519C9.03527 42.3469 9.02516 42.3438 9.01472 42.3427L0.941122 41.4621C0.930702 41.4609 0.920146 41.4617 0.910065 41.4646C0.899985 41.4675 0.890581 41.4724 0.882399 41.479C0.874217 41.4855 0.867418 41.4937 0.862399 41.5029C0.857379 41.5121 0.854237 41.5222 0.853155 41.5326L0.442322 45.3026C0.440147 45.3236 0.446334 45.3446 0.459544 45.3611C0.472753 45.3776 0.491919 45.3882 0.512888 45.3906L8.58745 46.2712C8.60835 46.2734 8.62924 46.2672 8.64555 46.254C8.66187 46.2407 8.67226 46.2216 8.67445 46.2007L8.77112 45.2814L23.2276 46.857L23.4036 45.2814Z" fill="url(#paint0_linear_108_43)"/>
<path d="M22.5161 56.8397H5.36456C5.26259 56.8397 5.17993 56.9224 5.17993 57.0244V66.0414C5.17993 66.1434 5.26259 66.2261 5.36456 66.2261H22.5161C22.6181 66.2261 22.7008 66.1434 22.7008 66.0414V57.0244C22.7008 56.9224 22.6181 56.8397 22.5161 56.8397Z" fill="url(#paint1_linear_108_43)"/>
<path d="M30.1636 52.3555H11.1715C11.0305 52.3555 10.9163 52.4697 10.9163 52.6107V70.4563C10.9163 70.5972 11.0305 70.7115 11.1715 70.7115H30.1636C30.3045 70.7115 30.4188 70.5972 30.4188 70.4563V52.6107C30.4188 52.4697 30.3045 52.3555 30.1636 52.3555Z" fill="url(#paint2_linear_108_43)"/>
<path d="M111.81 35.0771L93.9412 49.641V49.5395H86.3867V62.0549H93.9412V61.9544L111.81 76.5172V35.0771Z" fill="url(#paint3_linear_108_43)"/>
<path d="M85.9536 34.5601H15.3251C15.0143 34.5601 14.7625 34.8119 14.7625 35.1227V79.8871C14.7625 80.1978 15.0143 80.4496 15.3251 80.4496H85.9536C86.2643 80.4496 86.5162 80.1978 86.5162 79.8871V35.1227C86.5162 34.8119 86.2643 34.5601 85.9536 34.5601Z" fill="url(#paint4_linear_108_43)"/>
<path d="M70.1661 38.244C78.7118 38.244 85.6395 31.3163 85.6395 22.7706C85.6395 14.2248 78.7118 7.29712 70.1661 7.29712C61.6203 7.29712 54.6926 14.2248 54.6926 22.7706C54.6926 31.3163 61.6203 38.244 70.1661 38.244Z" fill="url(#paint5_linear_108_43)"/>
<path d="M80.2967 2.84468C69.2922 -2.75039 55.8401 1.63538 50.2402 12.6399C44.6403 23.6444 49.0299 37.1033 60.0354 42.6965C71.0409 48.2896 84.4969 43.9067 90.092 32.9022C95.687 21.8977 91.3022 8.44071 80.2967 2.84468ZM79.7844 8.83801C79.9092 8.59302 80.0882 8.37973 80.3079 8.21436C80.5275 8.049 80.782 7.93591 81.0519 7.88371C81.3219 7.83151 81.6002 7.84158 81.8656 7.91314C82.1311 7.9847 82.3767 8.11587 82.5839 8.29668C85.3453 10.6778 87.3715 13.7961 88.4254 17.2867C88.5068 17.5489 88.5273 17.8262 88.4855 18.0976C88.4437 18.3689 88.3406 18.6272 88.184 18.8528C88.0275 19.0784 87.8216 19.2653 87.5821 19.3995C87.3425 19.5336 87.0756 19.6114 86.8014 19.627L77.069 20.1451C76.7528 20.1621 76.4376 20.0954 76.1553 19.9518C75.873 19.8082 75.6335 19.5928 75.4609 19.3272C75.2883 19.0616 75.1887 18.7552 75.1722 18.4389C75.1557 18.1226 75.2228 17.8076 75.3667 17.5254L79.7844 8.83801ZM63.8412 4.78768C67.2821 3.58468 70.9944 3.38586 74.5441 4.21444C74.812 4.27505 75.0625 4.3959 75.2767 4.56782C75.4909 4.73974 75.6631 4.95821 75.7802 5.20664C75.8974 5.45506 75.9563 5.72691 75.9527 6.00153C75.9491 6.27616 75.8829 6.54635 75.7592 6.79158L71.3415 15.479C71.1977 15.7608 70.9824 15.9999 70.717 16.1722C70.4516 16.3444 70.1456 16.4439 69.8297 16.4605C69.5138 16.4772 69.199 16.4105 68.917 16.267C68.635 16.1236 68.3957 15.9085 68.2231 15.6433L62.9064 7.47404C62.7579 7.24325 62.6638 6.98167 62.6313 6.70913C62.5989 6.43659 62.6288 6.16024 62.719 5.90101C62.8092 5.64177 62.9572 5.40646 63.1517 5.2129C63.3463 5.01934 63.5824 4.8726 63.8421 4.78381L63.8412 4.78768ZM51.4185 19.2596C52.0883 15.6691 53.7769 12.347 56.2828 9.68964C56.4695 9.48874 56.6994 9.33294 56.9552 9.23405C57.211 9.13517 57.486 9.09578 57.7593 9.11888C58.0326 9.14198 58.297 9.22696 58.5326 9.36738C58.7682 9.5078 58.9687 9.69999 59.119 9.92938L64.4357 18.1054C64.6081 18.3707 64.7078 18.6767 64.7246 18.9926C64.7413 19.3086 64.6747 19.6234 64.5312 19.9054C64.3878 20.1874 64.1727 20.4267 63.9075 20.5993C63.6423 20.7719 63.3364 20.8716 63.0205 20.8885L53.2803 21.4076C53.0069 21.4207 52.7341 21.3716 52.4824 21.2639C52.2308 21.1563 52.0068 20.9928 51.8275 20.786C51.6482 20.5791 51.5183 20.3343 51.4474 20.0699C51.3766 19.8055 51.3667 19.5284 51.4185 19.2596ZM60.5477 36.708C60.4226 36.9532 60.2431 37.1667 60.0229 37.332C59.8028 37.4973 59.5477 37.6102 59.2773 37.6619C59.0069 37.7137 58.7282 37.703 58.4625 37.6306C58.1969 37.5583 57.9512 37.4262 57.7444 37.2445C54.983 34.8631 52.9566 31.745 51.9019 28.2545C51.8207 27.9922 51.8003 27.7148 51.8423 27.4435C51.8843 27.1721 51.9875 26.9139 52.1441 26.6884C52.3007 26.4628 52.5066 26.2759 52.7461 26.1418C52.9857 26.0076 53.2527 25.9298 53.5268 25.9142L63.2592 25.396C63.5761 25.3778 63.8922 25.4436 64.1755 25.5868C64.4589 25.73 64.6993 25.9455 64.8726 26.2114C65.0458 26.4774 65.1458 26.7844 65.1622 27.1014C65.1787 27.4184 65.1111 27.7342 64.9664 28.0167L60.5477 36.708ZM66.8678 21.0934C67.1996 20.4411 67.7174 19.9019 68.3557 19.5439C68.994 19.1859 69.7241 19.0252 70.4537 19.0821C71.1833 19.139 71.8797 19.4109 72.4547 19.8636C73.0298 20.3163 73.4577 20.9293 73.6844 21.6251C73.911 22.3209 73.9263 23.0684 73.7282 23.7729C73.5301 24.4774 73.1276 25.1074 72.5715 25.5831C72.0154 26.0588 71.3307 26.359 70.604 26.4456C69.8773 26.5323 69.1413 26.4015 68.4889 26.0698C68.0557 25.8495 67.6701 25.5461 67.3541 25.1768C67.0382 24.8075 66.7981 24.3795 66.6475 23.9174C66.497 23.4553 66.439 22.968 66.4768 22.4835C66.5146 21.999 66.6474 21.5266 66.8678 21.0934ZM76.49 40.7583C73.0491 41.9614 69.3368 42.1602 65.7871 41.3315C65.5193 41.2708 65.2688 41.1499 65.0548 40.9779C64.8407 40.8059 64.6686 40.5875 64.5516 40.339C64.4345 40.0906 64.3756 39.8188 64.3793 39.5443C64.383 39.2697 64.4493 38.9996 64.5729 38.7544L68.9916 30.0631C69.1348 29.7809 69.3499 29.5414 69.6151 29.3688C69.8803 29.1961 70.1863 29.0963 70.5023 29.0795C70.8183 29.0626 71.1332 29.1293 71.4152 29.2728C71.6973 29.4163 71.9366 29.6315 72.1091 29.8968L77.4257 38.0661C77.5747 38.297 77.669 38.5587 77.7017 38.8315C77.7344 39.1043 77.7045 39.3809 77.6143 39.6404C77.5241 39.8999 77.376 40.1354 77.1812 40.3291C76.9864 40.5228 76.75 40.6696 76.49 40.7583ZM81.2131 35.6098L75.8965 27.4347C75.7237 27.1696 75.6238 26.8637 75.6069 26.5477C75.5899 26.2317 75.6564 25.9169 75.7998 25.6348C75.9431 25.3527 76.1582 25.1133 76.4235 24.9407C76.6887 24.7681 76.9947 24.6685 77.3107 24.6517L87.0508 24.1326C87.3248 24.1188 87.5983 24.1675 87.8506 24.275C88.1029 24.3825 88.3275 24.546 88.5072 24.7532C88.687 24.9603 88.8173 25.2057 88.8882 25.4707C88.9591 25.7356 88.9688 26.0132 88.9165 26.2825C88.2458 29.8729 86.557 33.1949 84.0513 35.8525C83.8644 36.0536 83.6341 36.2095 83.378 36.3084C83.1219 36.4073 82.8466 36.4465 82.573 36.4231C82.2995 36.3997 82.0349 36.3143 81.7992 36.1734C81.5636 36.0325 81.3632 35.8398 81.2131 35.6098Z" fill="url(#paint6_linear_108_43)"/>
<path d="M71.7824 23.5932C71.6197 23.9127 71.3659 24.1768 71.053 24.3521C70.7402 24.5274 70.3825 24.6061 70.025 24.5781C69.6675 24.5501 69.3263 24.4167 69.0446 24.1949C68.7628 23.9731 68.5532 23.6727 68.4422 23.3317C68.3311 22.9907 68.3237 22.6245 68.4207 22.2793C68.5178 21.9341 68.715 21.6254 68.9874 21.3923C69.2599 21.1591 69.5953 21.012 69.9514 20.9695C70.3074 20.9269 70.6681 20.9909 70.9878 21.1533C71.2004 21.2612 71.3896 21.4099 71.5446 21.5909C71.6996 21.772 71.8174 21.9818 71.8912 22.2084C71.965 22.4351 71.9934 22.674 71.9747 22.9116C71.9561 23.1493 71.8907 23.3809 71.7824 23.5932Z" fill="url(#paint7_linear_108_43)"/>
<path d="M26.6874 37.6525C34.4094 37.6525 40.6693 31.3926 40.6693 23.6706C40.6693 15.9486 34.4094 9.68872 26.6874 9.68872C18.9655 9.68872 12.7056 15.9486 12.7056 23.6706C12.7056 31.3926 18.9655 37.6525 26.6874 37.6525Z" fill="url(#paint8_linear_108_43)"/>
<path d="M26.6873 3.47205C15.5319 3.47205 6.48975 12.5152 6.48975 23.6754C6.48975 34.8355 15.53 43.87 26.6873 43.87C37.8445 43.87 46.8906 34.8268 46.8906 23.6715C46.8906 12.5162 37.8426 3.47205 26.6873 3.47205ZM28.7279 8.50645C28.7289 8.2587 28.7862 8.01442 28.8954 7.79209C29.0047 7.56975 29.1631 7.37518 29.3587 7.2231C29.5543 7.07102 29.7819 6.96541 30.0243 6.91426C30.2667 6.86312 30.5176 6.86777 30.7579 6.92788C33.9583 7.71433 36.8685 9.39623 39.1476 11.7767C39.3206 11.9547 39.4507 12.1698 39.5282 12.4056C39.6056 12.6415 39.6282 12.8919 39.5944 13.1378C39.5606 13.3837 39.4712 13.6187 39.333 13.8249C39.1947 14.031 39.0113 14.203 38.7967 14.3277L31.1707 18.727C30.923 18.8699 30.6421 18.945 30.3562 18.945C30.0703 18.9449 29.7895 18.8695 29.5419 18.7265C29.2943 18.5835 29.0888 18.3778 28.9459 18.1301C28.803 17.8825 28.7278 17.6016 28.7279 17.3157V8.50645ZM14.2279 11.7767C16.5065 9.39828 19.4152 7.71779 22.6137 6.93175C22.8541 6.87164 23.105 6.86699 23.3474 6.91813C23.5898 6.96928 23.8174 7.07489 24.0129 7.22697C24.2085 7.37905 24.3669 7.57362 24.4762 7.79595C24.5855 8.01829 24.6428 8.26257 24.6437 8.51031V17.3157C24.6439 17.6016 24.5688 17.8826 24.4259 18.1303C24.2831 18.3779 24.0775 18.5836 23.8298 18.7266C23.5822 18.8696 23.3013 18.9448 23.0153 18.9447C22.7294 18.9446 22.4485 18.8692 22.201 18.726L14.574 14.3238C14.3605 14.1985 14.1783 14.0263 14.0411 13.8202C13.9039 13.6142 13.8153 13.3797 13.782 13.1344C13.7487 12.8891 13.7715 12.6394 13.8487 12.4042C13.926 12.169 14.0556 11.9544 14.2279 11.7767ZM10.1486 28.5242C9.21931 25.3578 9.21931 21.9911 10.1486 18.8246C10.2169 18.5865 10.3385 18.3671 10.5042 18.1829C10.6698 17.9987 10.8752 17.8545 11.1047 17.7614C11.3343 17.6683 11.582 17.6286 11.8292 17.6453C12.0764 17.662 12.3165 17.7348 12.5314 17.858L20.1681 22.265C20.4156 22.408 20.6211 22.6136 20.764 22.8612C20.9069 23.1087 20.9821 23.3895 20.9821 23.6754C20.9821 23.9612 20.9069 24.242 20.764 24.4896C20.6211 24.7371 20.4156 24.9428 20.1681 25.0857L12.5314 29.4928C12.3161 29.6159 12.0756 29.6884 11.8281 29.7048C11.5806 29.7212 11.3326 29.681 11.103 29.5872C10.8734 29.4935 10.6681 29.3487 10.5027 29.1639C10.3373 28.979 10.2162 28.7589 10.1486 28.5203V28.5242ZM24.6486 38.8385C24.6476 39.0863 24.5903 39.3305 24.4811 39.5529C24.3718 39.7752 24.2133 39.9698 24.0178 40.1219C23.8222 40.2739 23.5946 40.3795 23.3522 40.4307C23.1098 40.4818 22.8589 40.4772 22.6186 40.4171C19.42 39.631 16.5113 37.9505 14.2327 35.5721C14.0599 35.3941 13.9298 35.179 13.8525 34.9433C13.7751 34.7075 13.7524 34.4572 13.7861 34.2114C13.8198 33.9655 13.9091 33.7306 14.0471 33.5244C14.1851 33.3181 14.3683 33.146 14.5827 33.0211L22.2097 28.6179C22.4573 28.4751 22.7382 28.3999 23.0241 28.4C23.3101 28.4001 23.5909 28.4754 23.8385 28.6185C24.086 28.7615 24.2916 28.9672 24.4345 29.2148C24.5773 29.4625 24.6525 29.7434 24.6524 30.0293L24.6486 38.8385ZM23.3436 23.6667C23.3436 23.0054 23.5397 22.3589 23.9071 21.809C24.2745 21.2592 24.7967 20.8306 25.4077 20.5775C26.0187 20.3244 26.691 20.2582 27.3396 20.3872C27.9882 20.5162 28.584 20.8347 29.0516 21.3023C29.5193 21.77 29.8377 22.3657 29.9667 23.0144C30.0957 23.663 30.0295 24.3353 29.7765 24.9463C29.5234 25.5572 29.0948 26.0795 28.5449 26.4469C27.9951 26.8143 27.3486 27.0104 26.6873 27.0104C25.8005 27.0104 24.95 26.6581 24.3229 26.031C23.6959 25.404 23.3436 24.5535 23.3436 23.6667ZM39.1476 35.5683C36.869 37.9467 33.9604 39.6272 30.7618 40.4132C30.5214 40.4733 30.2706 40.478 30.0282 40.4268C29.7858 40.3757 29.5582 40.2701 29.3626 40.118C29.167 39.9659 29.0086 39.7713 28.8993 39.549C28.79 39.3267 28.7327 39.0824 28.7318 38.8346V30.0254C28.7317 29.7395 28.8069 29.4586 28.9498 29.211C29.0926 28.9633 29.2982 28.7576 29.5458 28.6146C29.7933 28.4716 30.0742 28.3962 30.3601 28.3961C30.646 28.396 30.9269 28.4712 31.1745 28.6141L38.8006 33.0172C39.0149 33.1423 39.198 33.3145 39.3358 33.5209C39.4737 33.7272 39.5627 33.9623 39.5961 34.2081C39.6296 34.454 39.6066 34.7043 39.5289 34.94C39.4512 35.1757 39.3208 35.3905 39.1476 35.5683ZM40.8431 29.4879L33.2065 25.0809C32.959 24.9379 32.7535 24.7323 32.6106 24.4847C32.4677 24.2372 32.3925 23.9564 32.3925 23.6705C32.3925 23.3847 32.4677 23.1039 32.6106 22.8563C32.7535 22.6088 32.959 22.4032 33.2065 22.2602L40.8431 17.8531C41.0581 17.7299 41.2982 17.6572 41.5454 17.6405C41.7925 17.6237 42.0403 17.6634 42.2698 17.7566C42.4994 17.8497 42.7048 17.9938 42.8704 18.178C43.0361 18.3622 43.1576 18.5817 43.226 18.8198C44.1553 21.9862 44.1553 25.3529 43.226 28.5193C43.1579 28.7576 43.0364 28.9773 42.8709 29.1617C42.7053 29.3462 42.5 29.4905 42.2704 29.5838C42.0408 29.6771 41.793 29.717 41.5457 29.7004C41.2984 29.6838 41.0582 29.6111 40.8431 29.4879Z" fill="url(#paint9_linear_108_43)"/>
<path d="M28.3258 23.6666C28.3249 23.9905 28.228 24.3068 28.0473 24.5756C27.8667 24.8444 27.6105 25.0537 27.311 25.177C27.0115 25.3002 26.6822 25.332 26.3647 25.2682C26.0472 25.2045 25.7557 25.048 25.527 24.8187C25.2984 24.5894 25.1428 24.2974 25.08 23.9797C25.0171 23.662 25.0499 23.3328 25.174 23.0337C25.2982 22.7346 25.5082 22.4789 25.7775 22.2991C26.0469 22.1193 26.3635 22.0233 26.6873 22.0233C27.1223 22.0246 27.5391 22.1983 27.8462 22.5063C28.1534 22.8144 28.3258 23.2316 28.3258 23.6666Z" fill="url(#paint10_linear_108_43)"/>
<defs>
<linearGradient id="paint0_linear_108_43" x1="-1.99174" y1="43.0358" x2="24.6815" y2="46.3109" gradientUnits="userSpaceOnUse">
<stop offset="0.15" stop-color="#D3A84C"/>
<stop offset="0.21" stop-color="#E8C96F"/>
<stop offset="0.27" stop-color="#F9E38A"/>
<stop offset="0.31" stop-color="#FFEC94"/>
<stop offset="0.33" stop-color="#FCE68E"/>
<stop offset="0.5" stop-color="#E6BE69"/>
<stop offset="0.56" stop-color="#EFC870"/>
<stop offset="0.69" stop-color="#FFD87C"/>
<stop offset="0.85" stop-color="#C19B48"/>
<stop offset="0.9" stop-color="#BF9945"/>
<stop offset="0.94" stop-color="#B7913C"/>
<stop offset="0.97" stop-color="#AA832D"/>
<stop offset="1" stop-color="#956D13"/>
</linearGradient>
<linearGradient id="paint1_linear_108_43" x1="2.83383" y1="61.5339" x2="16.9365" y2="61.5339" gradientUnits="userSpaceOnUse">
<stop offset="0.1" stop-color="#A47A1E"/>
<stop offset="0.18" stop-color="#B58C30"/>
<stop offset="0.4" stop-color="#E2BA5E"/>
<stop offset="0.76" stop-color="#FFD87C"/>
</linearGradient>
<linearGradient id="paint2_linear_108_43" x1="11.822" y1="61.534" x2="29.6967" y2="61.534" gradientUnits="userSpaceOnUse">
<stop stop-color="#D3A84C"/>
<stop offset="0.1" stop-color="#E8C96F"/>
<stop offset="0.19" stop-color="#F9E38A"/>
<stop offset="0.25" stop-color="#FFEC94"/>
<stop offset="0.38" stop-color="#F9E18A"/>
<stop offset="0.5" stop-color="#E6BE69"/>
<stop offset="0.61" stop-color="#FFD87C"/>
<stop offset="1" stop-color="#A47A1E"/>
</linearGradient>
<linearGradient id="paint3_linear_108_43" x1="119.787" y1="55.7976" x2="76.346" y2="55.7976" gradientUnits="userSpaceOnUse">
<stop offset="0.02" stop-color="#A47A1E"/>
<stop offset="0.09" stop-color="#C09539"/>
<stop offset="0.15" stop-color="#D3A84C"/>
<stop offset="0.21" stop-color="#E8C96F"/>
<stop offset="0.27" stop-color="#F9E38A"/>
<stop offset="0.31" stop-color="#FFEC94"/>
<stop offset="0.33" stop-color="#FCE68E"/>
<stop offset="0.5" stop-color="#E6BE69"/>
<stop offset="0.56" stop-color="#EFC870"/>
<stop offset="0.69" stop-color="#FFD87C"/>
<stop offset="0.85" stop-color="#C19B48"/>
<stop offset="0.9" stop-color="#BF9945"/>
<stop offset="0.94" stop-color="#B7913C"/>
<stop offset="0.97" stop-color="#AA832D"/>
<stop offset="1" stop-color="#956D13"/>
</linearGradient>
<linearGradient id="paint4_linear_108_43" x1="5.77922" y1="57.5049" x2="94.7359" y2="57.5901" gradientUnits="userSpaceOnUse">
<stop offset="0.01" stop-color="#A47A1E"/>
<stop offset="0.09" stop-color="#C09539"/>
<stop offset="0.15" stop-color="#D3A84C"/>
<stop offset="0.21" stop-color="#E8C96F"/>
<stop offset="0.27" stop-color="#F9E38A"/>
<stop offset="0.31" stop-color="#FFEC94"/>
<stop offset="0.33" stop-color="#FCE68E"/>
<stop offset="0.5" stop-color="#E6BE69"/>
<stop offset="0.56" stop-color="#EFC870"/>
<stop offset="0.69" stop-color="#FFD87C"/>
<stop offset="0.85" stop-color="#C19B48"/>
<stop offset="0.93" stop-color="#BF9946"/>
<stop offset="0.96" stop-color="#BA933F"/>
<stop offset="0.97" stop-color="#B08934"/>
<stop offset="0.99" stop-color="#A27B23"/>
<stop offset="1" stop-color="#956D13"/>
</linearGradient>
<linearGradient id="paint5_linear_108_43" x1="70.1678" y1="-204.085" x2="70.163" y2="304.56" gradientUnits="userSpaceOnUse">
<stop offset="0.08" stop-color="#D3A84C"/>
<stop offset="0.13" stop-color="#E8C96F"/>
<stop offset="0.18" stop-color="#F9E38A"/>
<stop offset="0.21" stop-color="#FFEC94"/>
<stop offset="0.3" stop-color="#C3A146"/>
<stop offset="0.35" stop-color="#A47A1E"/>
<stop offset="0.37" stop-color="#AA8125"/>
<stop offset="0.46" stop-color="#D5AD56"/>
<stop offset="0.5" stop-color="#E6BE69"/>
<stop offset="0.63" stop-color="#FCD57A"/>
<stop offset="0.69" stop-color="#FFD87C"/>
<stop offset="0.79" stop-color="#B7913C"/>
<stop offset="0.8" stop-color="#956D13"/>
</linearGradient>
<linearGradient id="paint6_linear_108_43" x1="83.041" y1="35.6468" x2="54.1733" y2="6.77992" gradientUnits="userSpaceOnUse">
<stop stop-color="#A47A1E"/>
<stop offset="0.08" stop-color="#C09539"/>
<stop offset="0.15" stop-color="#D3A84C"/>
<stop offset="0.21" stop-color="#E8C96F"/>
<stop offset="0.27" stop-color="#F9E38A"/>
<stop offset="0.31" stop-color="#FFEC94"/>
<stop offset="0.33" stop-color="#FCE68E"/>
<stop offset="0.5" stop-color="#E6BE69"/>
<stop offset="0.56" stop-color="#EFC870"/>
<stop offset="0.69" stop-color="#FFD87C"/>
<stop offset="0.85" stop-color="#C19B48"/>
<stop offset="0.9" stop-color="#BF9945"/>
<stop offset="0.94" stop-color="#B7913C"/>
<stop offset="0.97" stop-color="#AA832D"/>
<stop offset="1" stop-color="#956D13"/>
</linearGradient>
<linearGradient id="paint7_linear_108_43" x1="86.8543" y1="2.0823" x2="49.4365" y2="48.4722" gradientUnits="userSpaceOnUse">
<stop stop-color="#A47A1E"/>
<stop offset="0.08" stop-color="#C09539"/>
<stop offset="0.15" stop-color="#D3A84C"/>
<stop offset="0.21" stop-color="#E8C96F"/>
<stop offset="0.27" stop-color="#F9E38A"/>
<stop offset="0.31" stop-color="#FFEC94"/>
<stop offset="0.33" stop-color="#FCE68E"/>
<stop offset="0.5" stop-color="#E6BE69"/>
<stop offset="0.56" stop-color="#EFC870"/>
<stop offset="0.69" stop-color="#FFD87C"/>
<stop offset="0.85" stop-color="#C19B48"/>
<stop offset="0.9" stop-color="#BF9945"/>
<stop offset="0.94" stop-color="#B7913C"/>
<stop offset="0.97" stop-color="#AA832D"/>
<stop offset="1" stop-color="#956D13"/>
</linearGradient>
<linearGradient id="paint8_linear_108_43" x1="69.0912" y1="-176.875" x2="-25.9833" y2="272.775" gradientUnits="userSpaceOnUse">
<stop offset="0.08" stop-color="#D3A84C"/>
<stop offset="0.13" stop-color="#E8C96F"/>
<stop offset="0.18" stop-color="#F9E38A"/>
<stop offset="0.21" stop-color="#FFEC94"/>
<stop offset="0.3" stop-color="#C3A146"/>
<stop offset="0.35" stop-color="#A47A1E"/>
<stop offset="0.37" stop-color="#AA8125"/>
<stop offset="0.46" stop-color="#D5AD56"/>
<stop offset="0.5" stop-color="#E6BE69"/>
<stop offset="0.63" stop-color="#FCD57A"/>
<stop offset="0.69" stop-color="#FFD87C"/>
<stop offset="0.79" stop-color="#B7913C"/>
<stop offset="0.8" stop-color="#956D13"/>
</linearGradient>
<linearGradient id="paint9_linear_108_43" x1="30.0909" y1="7.57555" x2="22.46" y2="43.6631" gradientUnits="userSpaceOnUse">
<stop stop-color="#A47A1E"/>
<stop offset="0.08" stop-color="#C09539"/>
<stop offset="0.15" stop-color="#D3A84C"/>
<stop offset="0.21" stop-color="#E8C96F"/>
<stop offset="0.27" stop-color="#F9E38A"/>
<stop offset="0.31" stop-color="#FFEC94"/>
<stop offset="0.33" stop-color="#FCE68E"/>
<stop offset="0.5" stop-color="#E6BE69"/>
<stop offset="0.56" stop-color="#EFC870"/>
<stop offset="0.69" stop-color="#FFD87C"/>
<stop offset="0.85" stop-color="#C19B48"/>
<stop offset="0.9" stop-color="#BF9945"/>
<stop offset="0.94" stop-color="#B7913C"/>
<stop offset="0.97" stop-color="#AA832D"/>
<stop offset="1" stop-color="#956D13"/>
</linearGradient>
<linearGradient id="paint10_linear_108_43" x1="31.656" y1="0.171824" x2="20.5161" y2="52.859" gradientUnits="userSpaceOnUse">
<stop stop-color="#A47A1E"/>
<stop offset="0.08" stop-color="#C09539"/>
<stop offset="0.15" stop-color="#D3A84C"/>
<stop offset="0.21" stop-color="#E8C96F"/>
<stop offset="0.27" stop-color="#F9E38A"/>
<stop offset="0.31" stop-color="#FFEC94"/>
<stop offset="0.33" stop-color="#FCE68E"/>
<stop offset="0.5" stop-color="#E6BE69"/>
<stop offset="0.56" stop-color="#EFC870"/>
<stop offset="0.69" stop-color="#FFD87C"/>
<stop offset="0.85" stop-color="#C19B48"/>
<stop offset="0.9" stop-color="#BF9945"/>
<stop offset="0.94" stop-color="#B7913C"/>
<stop offset="0.97" stop-color="#AA832D"/>
<stop offset="1" stop-color="#956D13"/>
</linearGradient>
</defs>
</svg>
