<svg width="77" height="77" viewBox="0 0 77 77" fill="none" xmlns="http://www.w3.org/2000/svg">
<path d="M38.693 73.4203C19.4623 73.4203 3.87207 57.83 3.87207 38.5994C3.87207 19.3687 19.4623 3.77844 38.693 3.77844C57.9236 3.77844 73.5139 19.3687 73.5139 38.5994C73.5139 57.83 57.9236 73.4203 38.693 73.4203ZM29.1964 38.5994V25.9372H22.8653V38.5994H29.1964ZM54.5207 38.5994V25.9372H48.1896V38.5994H54.5207ZM38.693 60.7581C42.8908 60.7581 46.9166 59.0906 49.8849 56.1223C52.8531 53.154 54.5207 49.1282 54.5207 44.9304H22.8653C22.8653 49.1282 24.5329 53.154 27.5011 56.1223C30.4694 59.0906 34.4952 60.7581 38.693 60.7581Z" fill="white"/>
</svg>
